<svg xmlns="http://www.w3.org/2000/svg" width="111" height="33" xmlns:v="https://vecta.io/nano"><path d="M54.874 11.748c-.952 0-1.718.765-1.718 1.687v12.662c0 .95.766 1.717 1.718 1.717s1.716-.766 1.716-1.717V13.435c0-.922-.768-1.687-1.716-1.687zm0-6.317c-1.073 0-1.934.86-1.934 1.93s.86 1.963 1.934 1.963 1.93-.89 1.93-1.962a1.92 1.92 0 0 0-1.93-1.93zm16.736 7.97c0-1.068-.858-1.469-1.593-1.469h-8.49c-.83 0-1.504.645-1.504 1.47s.675 1.503 1.503 1.503h5.578l-7.231 10.058c-.217.305-.337.675-.337 1.011 0 1.041.858 1.656 1.562 1.656h9.013c.825 0 1.499-.675 1.499-1.503s-.643-1.504-1.499-1.504h-6.07l7.08-9.84c.366-.489.489-.917.489-1.382zm-25.035 7.975c0 2.084-.922 3.373-2.976 3.373-2.085 0-2.972-1.289-2.972-3.373v-6.47h3.118c2.515 0 2.83 1.38 2.83 2.914v3.556zm3.402-3.617c0-3.558-1.88-5.827-6.205-5.827h-3.145V7.149c0-.954-.767-1.718-1.688-1.718a1.71 1.71 0 0 0-1.715 1.718l.001 14.227c0 3.525 1.9 6.438 6.374 6.438 4.444 0 6.378-2.913 6.378-6.438v-3.617zm35.008-6.01c-.95 0-1.717.764-1.717 1.717v7.91c0 2.084-.92 3.373-2.976 3.373-2.083 0-2.972-1.289-2.972-3.373v-7.91c0-.953-.766-1.718-1.686-1.718-.95 0-1.717.765-1.717 1.718l.002 7.91c0 3.525 1.899 6.438 6.373 6.438 4.446 0 6.38-2.913 6.38-6.438v-7.91c0-.953-.767-1.718-1.687-1.718zm26.012 6.438c0-3.525-1.63-6.44-6.104-6.44-1.995 0-3.425.59-4.4 1.555-.972-.965-2.403-1.555-4.41-1.555-4.445 0-6.104 2.915-6.104 6.44l-.003 7.91c0 .95.766 1.717 1.688 1.717.95 0 1.716-.766 1.716-1.717v-7.91c0-2.085.649-3.372 2.703-3.372 2.084 0 2.704 1.287 2.704 3.372v7.91c0 .95.766 1.717 1.686 1.717.95 0 1.716-.766 1.716-1.717v-7.91c0-2.085.65-3.372 2.704-3.372 2.084 0 2.704 1.287 2.704 3.372v7.91c0 .95.765 1.717 1.687 1.717.95 0 1.716-.766 1.716-1.717l-.003-7.91zm-104.95-6.42c1.197.872 2.876.603 3.75-.598l3.154-4.342c.872-1.2.607-2.88-.595-3.751a2.68 2.68 0 0 0-3.748.594L5.45 8.015c-.87 1.2-.607 2.877.596 3.752zM20.45 5.64c-1.198-.875-2.877-.604-3.748.593L4.076 23.613a2.69 2.69 0 0 0 .593 3.75c1.2.871 2.88.606 3.75-.595l12.625-17.38a2.68 2.68 0 0 0-.594-3.748zM4.856 4.263c.873-1.199.605-2.879-.592-3.751a2.69 2.69 0 0 0-3.75.593c-.873 1.2-.607 2.88.593 3.75s2.878.607 3.749-.592zm19.158 23.879c-1.198-.871-2.878-.604-3.748.594s-.607 2.88.592 3.75 2.88.606 3.752-.595.604-2.879-.596-3.75zm-4.939-6.908c-1.198-.87-2.878-.604-3.747.596l-3.158 4.346c-.87 1.198-.607 2.874.592 3.749s2.88.604 3.752-.595l3.158-4.345c.87-1.199.604-2.879-.597-3.75z" fill="#FFFFFF" fill-rule="evenodd"/></svg>