<?xml version="1.0" encoding="UTF-8"?>
<svg width="251px" height="56px" viewBox="0 0 251 56" version="1.1" xmlns="http://www.w3.org/2000/svg" xmlns:xlink="http://www.w3.org/1999/xlink">
    <title>55E01793-BB7A-406A-B7D7-C732DEA1DA64</title>
    <g id="KUKENTOK" stroke="none" stroke-width="1" fill="none" fill-rule="evenodd">
        <g id="1-Log-In-Splash-screen" transform="translate(-62.000000, -320.000000)">
            <g id="Group-2" transform="translate(62.000000, 232.000000)">
                <g id="Logo/Dark-Mode/Kukentok" transform="translate(0.000000, 88.000000)">
                    <g id="Group" transform="translate(3.000000, 6.000000)">
                        <g id="Group-2" fill="#00FFC8" fill-rule="nonzero">
                            <path d="M14.5827283,45 C16.5196424,45 17.9537038,44.475 18.8849125,43.425 C19.8161212,42.375 20.2817255,40.875 20.2817255,38.925 L20.2817255,32.0625 C20.2817255,31.0875 20.2910376,30.178125 20.3096618,29.334375 C20.328286,28.490625 20.4214068,27.75 20.5890244,27.1125 C20.756642,26.475 21.0173804,25.940625 21.3712397,25.509375 C21.725099,25.078125 22.2372638,24.7875 22.9077341,24.6375 C23.7644461,24.4125 24.3883559,24.159375 24.7794636,23.878125 C25.1705712,23.596875 25.3661251,23.1375 25.3661251,22.5 C25.3661251,21.8625 25.1705712,21.4125 24.7794636,21.15 C24.3883559,20.8875 23.7644461,20.625 22.9077341,20.3625 C22.2372638,20.175 21.725099,19.865625 21.3712397,19.434375 C21.0173804,19.003125 20.756642,18.46875 20.5890244,17.83125 C20.4214068,17.19375 20.328286,16.4625 20.3096618,15.6375 C20.2910376,14.8125 20.2817255,13.9125 20.2817255,12.9375 L20.2817255,6.075 C20.2817255,4.125 19.8161212,2.625 18.8849125,1.575 C17.9537038,0.525 16.5196424,0 14.5827283,0 L12.4595724,0 C10.9696385,0 10.2246716,0.5625 10.2246716,1.6875 C10.2246716,2.8125 10.9696385,3.375 12.4595724,3.375 L13.2417877,3.375 C13.9867547,3.375 14.5827283,3.609375 15.0297085,4.078125 C15.4766886,4.546875 15.7001787,5.2125 15.7001787,6.075 L15.7001787,14.9625 C15.7001787,16.5 15.8771084,17.746875 16.2309677,18.703125 C16.584827,19.659375 17.013183,20.4 17.5160357,20.925 C18.0188884,21.45 18.5683015,21.815625 19.1642751,22.021875 C19.7602487,22.228125 20.3003497,22.36875 20.7845782,22.44375 L20.7845782,22.55625 C20.3003497,22.59375 19.7602487,22.725 19.1642751,22.95 C18.5683015,23.175 18.0188884,23.55 17.5160357,24.075 C17.013183,24.6 16.584827,25.340625 16.2309677,26.296875 C15.8771084,27.253125 15.7001787,28.5 15.7001787,30.0375 L15.7001787,38.925 C15.7001787,39.7875 15.4766886,40.453125 15.0297085,40.921875 C14.5827283,41.390625 13.9867547,41.625 13.2417877,41.625 L12.4595724,41.625 C10.9696385,41.625 10.2246716,42.1875 10.2246716,43.3125 C10.2246716,44.4375 10.9696385,45 12.4595724,45 L14.5827283,45 Z" id="}"></path>
                            <path d="M7,14.2518429 C7.82352941,14.2518429 8.52941176,13.9557381 9.11764706,13.3635287 C9.70588235,12.7713192 10,12.0606679 10,11.2315747 C10,10.4024815 9.70588235,9.69183014 9.11764706,9.0996207 C8.52941176,8.50741125 7.82352941,8.21130653 7,8.21130653 C6.17647059,8.21130653 5.47058824,8.50741125 4.88235294,9.0996207 C4.29411765,9.69183014 4,10.4024815 4,11.2315747 C4,12.0606679 4.29411765,12.7713192 4.88235294,13.3635287 C5.47058824,13.9557381 6.17647059,14.2518429 7,14.2518429 Z" id="Path"></path>
                            <path d="M2.07792208,39.4207442 C2.77056277,39.4207442 3.28138528,39.1947532 3.61038961,38.7427711 C3.93939394,38.2907891 4.24242424,37.7896785 4.51948052,37.2394395 L7.42857143,30.7544793 C7.80952381,29.8898179 8,29.1627163 8,28.5731745 C8,27.9050271 7.79220779,27.3646137 7.37662338,26.9519345 C6.96103896,26.5392552 6.47619048,26.3329155 5.92207792,26.3329155 C5.22943723,26.3329155 4.71861472,26.5589066 4.38961039,27.0108886 C4.06060606,27.4628707 3.75757576,27.9639813 3.48051948,28.5142203 L0.571428571,34.9991805 C0.19047619,35.8638418 0,36.5909434 0,37.1804853 C0,37.8486327 0.207792208,38.389046 0.623376623,38.8017253 C1.03896104,39.2144046 1.52380952,39.4207442 2.07792208,39.4207442 Z" id="Path"></path>
                        </g>
                        <g id="kukentok" transform="translate(36.000000, 2.170770)">
                            <path d="M6.15799295,39.7093753 L6.15799295,29.5576847 L7.89342732,27.8189974 L17.0184532,39.7093753 L24.2400995,39.7093753 L12.2040224,24.0611893 L24.2960813,10.6564708 L16.5705992,10.6564708 L6.15799295,22.3785886 L6.15799295,0 L0,0 L0,39.7093753 L6.15799295,39.7093753 Z M39.8240203,40.2702422 C41.6154364,40.2702422 43.4721646,40.0552432 45.3942048,39.6252453 C47.3162451,39.1952474 49.1729732,38.6063371 50.9643894,37.8585146 L50.9643894,37.8585146 L50.9643894,10.6564708 L44.8623782,10.6564708 L44.8623782,33.9324464 C43.5934584,34.6054867 42.1939146,34.9420068 40.6637466,34.9420068 C38.984294,34.9420068 37.5380987,34.5494 36.3251607,33.7641864 C35.1122227,32.9789727 34.4684325,31.8198478 34.3937902,30.2868117 L34.3937902,30.2868117 L34.3937902,10.6564708 L28.2357972,10.6564708 L28.2357972,30.1746383 C28.2357972,33.5772307 29.3087808,36.1011317 31.4547481,37.7463412 C33.6007153,39.3915508 36.3904727,40.2328511 39.8240203,40.2702422 Z M64.085113,39.7093753 L64.085113,29.5576847 L65.8205474,27.8189974 L74.9455733,39.7093753 L82.1672196,39.7093753 L70.1311424,24.0611893 L82.2232013,10.6564708 L74.4977193,10.6564708 L64.085113,22.3785886 L64.085113,0 L57.9271201,0 L57.9271201,39.7093753 L64.085113,39.7093753 Z M95.2879432,40.2702422 C97.3032863,40.2702422 99.271978,39.7561142 101.194018,38.7278583 C103.116058,37.6996023 104.618236,36.2320007 105.700549,34.3250533 L105.700549,34.3250533 L100.550228,31.3524588 C100.065053,32.3620192 99.3466204,33.1004939 98.3949305,33.567883 C97.4432407,34.035272 96.3702571,34.2689666 95.1759797,34.2689666 C93.7950964,34.2689666 92.5914887,33.8857075 91.5651565,33.1191895 C90.5388244,32.3526714 90.0256583,31.3337632 90.0256583,30.0624649 L90.0256583,30.0624649 L90.0256583,28.0433442 L106.596258,28.0433442 L106.596258,20.0790344 C106.596258,17.9103491 106.055101,16.078184 104.972787,14.582539 C103.890473,13.0868939 102.490929,11.9651602 100.774155,11.2173377 C99.0573813,10.4695152 97.228644,10.0956039 95.2879432,10.0956039 C93.3099212,10.0956039 91.4438627,10.4695152 89.6897678,11.2173377 C87.9356728,11.9651602 86.5174684,13.0868939 85.4351545,14.582539 C84.3528406,16.078184 83.8116836,17.9103491 83.8116836,20.0790344 L83.8116836,20.0790344 L83.8116836,30.2868117 C83.8116836,32.4181058 84.3528406,34.2315754 85.4351545,35.7272205 C86.5174684,37.2228655 87.9356728,38.353947 89.6897678,39.1204651 C91.4438627,39.8869832 93.3099212,40.2702422 95.2879432,40.2702422 Z M100.662192,22.9394555 L90.0256583,22.9394555 L90.0256583,20.3033812 C89.9883371,18.9573007 90.4921729,17.9196969 91.5371657,17.19057 C92.5821584,16.461443 93.8510782,16.0968795 95.3439249,16.0968795 C96.7994506,16.0968795 98.0497097,16.461443 99.0947025,17.19057 C100.139695,17.9196969 100.662192,18.9199095 100.662192,20.1912078 L100.662192,20.1912078 L100.662192,22.9394555 Z M118.485383,39.7093753 L118.485383,16.8820932 C119.567696,16.2090529 120.94858,15.8725328 122.628032,15.8725328 C124.270164,15.8725328 125.707029,16.2557918 126.938627,17.0223099 C128.170226,17.788828 128.823346,18.9386051 128.897989,20.4716412 L128.897989,20.4716412 L128.897989,39.7093753 L135,39.7093753 L135,20.4155545 C135,16.9007887 133.777732,14.2927577 131.333195,12.5914615 C128.888659,10.8901653 125.856314,10.0582128 122.23616,10.0956039 C120.482065,10.132995 118.746631,10.3573418 117.029857,10.7686442 C115.313083,11.1799465 113.745594,11.7408134 112.32739,12.4512448 L112.32739,12.4512448 L112.32739,39.7093753 L118.485383,39.7093753 Z" id="kuken" fill="#E0E6EB" fill-rule="nonzero"></path>
                            <path d="M150.258258,40.2702422 C151.005672,40.2702422 151.771772,40.2141555 152.556557,40.1019821 L152.556557,40.1019821 L152.556557,34.7176601 C151.173841,34.7176601 150.043377,34.6148345 149.165165,34.4091833 C148.286954,34.2035321 147.558225,33.7548386 146.978979,33.0631028 C146.399733,32.3713669 146.11011,31.2963721 146.11011,29.8381182 L146.11011,29.8381182 L146.166166,16.2651396 L151.65966,16.2651396 L151.65966,10.6564708 L146.11011,10.6564708 L145.54955,3.81389481 L140,3.81389481 L140,29.8942049 C140,33.3715796 140.94361,35.9702628 142.830831,37.6902546 C144.718051,39.4102463 147.193861,40.2702422 150.258258,40.2702422 Z M168.105105,40.2702422 C170.048382,40.2328511 171.888889,39.8402443 173.626627,39.0924218 C175.364364,38.3445992 176.775108,37.2228655 177.858859,35.7272205 C178.942609,34.2315754 179.484484,32.3994103 179.484484,30.230725 L179.484484,30.230725 L179.484484,20.1351211 C179.484484,18.003827 178.942609,16.1903574 177.858859,14.6947123 C176.775108,13.1990673 175.364364,12.0679858 173.626627,11.3014677 C171.888889,10.5349496 170.048382,10.132995 168.105105,10.0956039 C166.124458,10.132995 164.255923,10.5349496 162.4995,11.3014677 C160.743076,12.0679858 159.32299,13.1990673 158.239239,14.6947123 C157.155489,16.1903574 156.613614,18.003827 156.613614,20.1351211 L156.613614,20.1351211 L156.613614,30.230725 C156.613614,32.3994103 157.155489,34.2315754 158.239239,35.7272205 C159.32299,37.2228655 160.743076,38.3445992 162.4995,39.0924218 C164.255923,39.8402443 166.124458,40.2328511 168.105105,40.2702422 Z M168.105105,34.2689666 C166.722389,34.2689666 165.489156,33.8763597 164.405405,33.0911461 C163.321655,32.3059325 162.77978,31.258981 162.77978,29.9502916 L162.77978,29.9502916 L162.77978,20.1351211 C162.77978,18.8638228 163.312312,17.872958 164.377377,17.1625266 C165.442442,16.4520952 166.685018,16.0968795 168.105105,16.0968795 C169.45045,16.0968795 170.655656,16.4520952 171.720721,17.1625266 C172.785786,17.872958 173.318318,18.8638228 173.318318,20.1351211 L173.318318,20.1351211 L173.318318,29.9502916 C173.318318,31.258981 172.776443,32.3059325 171.692693,33.0911461 C170.608942,33.8763597 169.41308,34.2689666 168.105105,34.2689666 Z M191.837838,39.7093753 L191.837838,29.5576847 L193.575576,27.8189974 L202.712713,39.7093753 L209.943944,39.7093753 L197.891892,24.0611893 L210,10.6564708 L202.264264,10.6564708 L191.837838,22.3785886 L191.837838,0 L185.671672,0 L185.671672,39.7093753 L191.837838,39.7093753 Z" id="tok" fill="#66FFDE"></path>
                        </g>
                    </g>
                </g>
            </g>
        </g>
    </g>
</svg>