<svg xmlns="http://www.w3.org/2000/svg" xmlns:xlink="http://www.w3.org/1999/xlink" width="260" height="151"><defs><rect id="A" width="260" height="151" rx="20"/><linearGradient id="B" x1="50%" x2="50%" y1="0%" y2="100%"><stop offset="0%" stop-color="#043e60"/><stop offset="100%" stop-color="#012336"/></linearGradient></defs><g fill-rule="evenodd"><mask id="C" fill="#fff"><use xlink:href="#A"/></mask><use fill="#e6e4e4" xlink:href="#A"/><path fill="url(#B)" d="M0 0l235-3.42L151.13 155 0 151z" mask="url(#C)"/><path d="M214.4 119.6l-2.8 16.34h-4.63l2.9-16.34h4.54zm9.44-.55a11.5 11.5 0 0 1 4.18.73l-.73 3.54-.45-.18c-.82-.36-1.9-.64-3.45-.64h-.23c-1.65.06-2.4.75-2.4 1.45 0 .82 1 1.27 2.63 2.1 2.72 1.18 3.9 2.63 3.9 4.54 0 1.37-.5 2.56-1.4 3.5l.05.05c-1.36 1.45-3.72 2.27-6.63 2.27-2.1 0-4.08-.45-5.17-.9l.01-.1h-.01l.64-3.72.63.27c1.54.64 2.54.9 4.36.9h.16c1.23-.04 2.56-.6 2.56-1.63a1.2 1.2 0 0 0-.09-.48 2.35 2.35 0 0 0-.36-.43l.27.26c-.28-.45-.93-.88-2.18-1.44-1.8-.82-4.08-2.1-4.08-4.54 0-3.05 2.85-5.23 6.92-5.5h.01l.3-.02h.14l.45-.01zm14.98 16.88l-.55-2.72h-5.8l-.9 2.72h-4.9l6.8-15.16c.45-1.1 1.27-1.18 2.36-1.18h3.54l3.8 16.34h-4.36zm-2.63-11.9l-.05.12-.58 1.5-1.8 4.8h3.8l-1.07-4.9-.27-1.54zm-41.75-4.45c.94 0 1.72.24 2.04 1.2l.05.17 1.46 6.88.17.46.1.3.36 2.27 1.47-3.43 3.16-7.74h4.9l-7.35 16.34h-4.9l-3.97-14.1-.4-.22a20.4 20.4 0 0 0-.49-.26l.17.1a20.83 20.83 0 0 0-.65-.33l.48.24-.48-.24a21.28 21.28 0 0 0-.52-.24l.4.2a21.37 21.37 0 0 0-.55-.25l.14.06a21.62 21.62 0 0 0-.51-.22l.36.16a21.71 21.71 0 0 0-.54-.23l.18.07a21.91 21.91 0 0 0-.54-.22l.36.14a21.98 21.98 0 0 0-.46-.18l-2.9-.9h8.44z" fill="#002941" fill-rule="nonzero"/></g></svg>