<svg xmlns="http://www.w3.org/2000/svg" xmlns:xlink="http://www.w3.org/1999/xlink" width="598" height="98" xmlns:v="https://vecta.io/nano"><defs><path id="A" d="M.002 2.101h96.333v96.337H.002z"/><path id="B" d="M0 101.024h597.858V4.687H0z"/></defs><g transform="translate(0 -4)" fill="none" fill-rule="evenodd"><g fill="#00263a"><path d="M359.344 54.934l-.417-3.342-.525-2.686-.028-.112h-3.07l-3.427 9.792c-.309.333-.895.6-1.739.797-.886.206-1.988.309-3.267.309-4.463 0-8.044-1.777-10.636-5.283-2.606-3.52-3.928-8.63-3.928-15.183 0-3.628.375-6.778 1.106-9.366s1.748-4.725 3.028-6.37c1.275-1.636 2.747-2.845 4.387-3.6s3.412-1.13 5.278-1.13c.961 0 1.908.07 2.827.206.867.127 1.509.305 1.912.511l3.797 10.43.038.098h3.145l.023-.117c.192-.858.389-1.898.591-3.098a82.97 82.97 0 0 0 .558-3.755 58.47 58.47 0 0 0 .347-3.652c.07-1.149.103-2.109.103-2.859v-.094l-.084-.042c-1.58-.741-3.633-1.341-6.113-1.781s-5.278-.666-8.325-.666c-3.239 0-6.37.483-9.309 1.434s-5.569 2.466-7.8 4.509-4.027 4.688-5.348 7.861-1.987 7.012-1.987 11.409c0 4.444.609 8.306 1.814 11.475 1.209 3.178 2.934 5.836 5.137 7.898s4.913 3.6 8.044 4.547 6.656 1.43 10.491 1.43a43.82 43.82 0 0 0 7.491-.628c2.438-.417 4.5-1.144 6.131-2.17l.07-.042v-.089c0-.909-.023-1.964-.07-3.127a66.53 66.53 0 0 0-.244-3.516m25.062-8.055v6.764c-.136.45-.328.975-.577 1.561a5.4 5.4 0 0 1-1.083 1.622c-.469.492-1.055.928-1.73 1.289s-1.486.539-2.428.539c-1.43 0-2.559-.473-3.356-1.406-.806-.937-1.214-2.283-1.214-3.998 0-1.134.15-2.109.441-2.897.291-.773.82-1.43 1.575-1.941.764-.516 1.842-.891 3.202-1.12 1.345-.225 3.08-.361 5.17-.413m9.989 9.211l-.038-2.63.173-6.9.173-7.542c0-1.528-.187-2.991-.558-4.345a8.32 8.32 0 0 0-2.016-3.567c-.961-1.008-2.302-1.814-3.984-2.4-1.673-.581-3.862-.877-6.506-.877-3.098 0-6.075.352-8.85 1.045s-5.086 1.664-6.853 2.869l-.075.052.009.094c.089.783.248 1.608.455 2.447a23.8 23.8 0 0 0 .769 2.48l.98 2.306a16.07 16.07 0 0 0 1.083 1.927l.047.07h3.239l3.277-8.367c1.167-.436 2.456-.661 3.839-.661 2.264 0 3.694.877 4.369 2.681s.844 4.673.492 8.545l-9.572.9c-2.663.417-4.87 1.064-6.567 1.922-1.711.867-2.981 1.997-3.778 3.356s-1.2 3.113-1.2 5.212c0 1.495.286 2.859.848 4.059a9.11 9.11 0 0 0 2.33 3.066c.98.844 2.142 1.509 3.45 1.973s2.747.703 4.284.703c1.444 0 2.77-.211 3.938-.633s2.194-.98 3.061-1.655a9.53 9.53 0 0 0 2.152-2.33c.539-.83.933-1.702 1.172-2.602h.08l.206 3.75c.094 1.073.38 2.166.848 3.239l.037.089h2.475l2.714-.384 3.103-.623 2.991-.802c.956-.277 1.72-.562 2.283-.844l.08-.042v-2.653l-4.8-.698-.159-2.231m64.557 3.001V42.729c0-2.916-.234-5.362-.698-7.275s-1.167-3.455-2.077-4.58c-.919-1.13-2.062-1.931-3.403-2.377-1.331-.445-2.878-.67-4.594-.67-2.803 0-5.212.806-7.177 2.395-1.814 1.467-3.164 3.38-4.022 5.695-.286-1.514-.727-2.784-1.308-3.783-.656-1.12-1.453-2.016-2.367-2.648a8.49 8.49 0 0 0-3.005-1.308c-1.078-.239-2.18-.352-3.295-.352-2.663 0-4.969.783-6.863 2.325-1.716 1.397-2.972 3.08-3.745 5.011v-7.336l-2.531.005-2.742.347-3.375.52-3.38.731c-1.087.277-2.02.581-2.761.909l-.094.037v2.873l4.584.558V59.09l-2.33.741a20.31 20.31 0 0 0-2.17.914l-.084.042v2.888h18.352v-2.873l-.066-.042c-1.041-.727-2.189-1.284-3.403-1.659V39.748c.497-1.814 1.289-3.295 2.353-4.402 1.05-1.102 2.311-1.659 3.741-1.659.984 0 1.791.211 2.414.633s1.116 1.102 1.472 2.016c.361.938.605 2.152.722 3.614l.169 5.414v13.744c-.656.225-1.27.483-1.823.773l-1.57.872-.075.047v2.878h17.658V60.8l-.075-.047a18.18 18.18 0 0 0-1.786-.909 16.86 16.86 0 0 0-2.03-.741V40.455c.455-2.053 1.158-3.722 2.091-4.95.914-1.209 2.194-1.819 3.802-1.819 2.17 0 3.544.806 4.195 2.475.661 1.692.998 4.369.998 7.95v14.995c-1.219.417-2.362.97-3.403 1.65l-.07.047v2.873h18.356v-2.883l-.08-.042c-1.448-.816-2.962-1.373-4.505-1.664m24.172.715l-2.395-.703v-31.27H478.2l-2.92.384-3.403.553-3.309.736-2.625.834-.094.042v2.873l4.584.558v25.284l-2.33.708a15.13 15.13 0 0 0-2.17.947l-.084.042v2.883h19.463v-2.878l-.075-.042c-.652-.37-1.359-.694-2.109-.952"/><path d="M471.089 21.293c1.12.947 2.583 1.425 4.355 1.425s3.23-.478 4.35-1.425c1.13-.952 1.702-2.25 1.702-3.863 0-1.659-.572-2.981-1.702-3.937-1.12-.942-2.587-1.42-4.35-1.42s-3.234.478-4.355 1.42c-1.13.956-1.702 2.278-1.702 3.937 0 1.613.572 2.911 1.702 3.863m54.653 37.795v-16.5c0-2.873-.272-5.283-.806-7.172s-1.317-3.422-2.32-4.547a8.09 8.09 0 0 0-3.717-2.372c-1.444-.445-3.094-.67-4.903-.67-2.798 0-5.208.722-7.167 2.147-1.814 1.317-3.23 2.888-4.205 4.673v-6.82l-2.527.005-3.234.38-3.478.591-3.169.731c-.98.258-1.781.53-2.386.806l-.084.042v2.869l4.58.558v25.284c-1.847.506-3.361 1.064-4.5 1.655l-.08.047v2.883h18.698v-2.873l-.07-.047c-.652-.417-1.28-.764-1.861-1.017-.553-.248-1.191-.459-1.889-.642V39.893c.637-1.903 1.589-3.431 2.831-4.542s2.733-1.664 4.448-1.664c2.053 0 3.502.802 4.308 2.386.816 1.617 1.233 3.9 1.233 6.788v16.247l-1.959.769-1.781.877-.08.042v2.883h18.698v-2.873l-.07-.047c-1.186-.778-2.705-1.336-4.509-1.669m29.417-2.133c-.586 1.059-1.289 1.833-2.095 2.306s-1.711.708-2.7.708c-1.725 0-3.145-.333-4.223-.984-1.087-.656-1.955-1.58-2.587-2.756s-1.087-2.648-1.336-4.355c-.253-1.725-.38-3.642-.38-5.709 0-2.573.15-4.772.45-6.534.295-1.753.745-3.188 1.336-4.256.586-1.055 1.313-1.833 2.161-2.302s1.88-.708 3.052-.708c1.58 0 2.906.333 3.947.984s1.87 1.58 2.48 2.752c.614 1.181 1.05 2.639 1.303 4.327.253 1.702.38 3.633.38 5.737 0 2.569-.15 4.767-.45 6.534-.295 1.758-.745 3.192-1.336 4.256m8.47-23.981c-1.514-1.603-3.473-2.878-5.817-3.783s-5.18-1.364-8.419-1.364c-2.873 0-5.484.422-7.758 1.256s-4.247 2.067-5.855 3.647-2.855 3.525-3.712 5.78-1.294 4.823-1.294 7.655c0 2.644.375 5.128 1.12 7.373s1.894 4.209 3.436 5.817c1.533 1.603 3.492 2.878 5.813 3.787s5.095 1.364 8.25 1.364c2.873 0 5.494-.422 7.791-1.261s4.28-2.062 5.883-3.647c1.608-1.575 2.845-3.52 3.684-5.78.834-2.25 1.256-4.823 1.256-7.655 0-2.639-.352-5.119-1.045-7.369s-1.823-4.214-3.333-5.822m32.916 16.373a13.74 13.74 0 0 0-3.225-3.408 27.44 27.44 0 0 0-4.195-2.545l-4.153-2.217c-1.256-.727-2.32-1.528-3.164-2.372-.82-.82-1.237-1.8-1.237-2.911 0-.975.352-1.866 1.036-2.644.684-.769 1.711-1.163 3.047-1.163.727 0 1.402.038 1.997.103a6.36 6.36 0 0 1 1.636.417l2.887 7.022.042.094h2.569l.037-.098 1.598-4.622c.553-1.687.928-3.295 1.116-4.786l.014-.108-.103-.047c-1.627-.694-3.539-1.247-5.691-1.641s-4.514-.595-7.003-.595c-1.809 0-3.516.225-5.077.666s-2.92 1.069-4.036 1.861a9.29 9.29 0 0 0-2.686 2.93c-.656 1.153-.989 2.452-.989 3.858 0 1.969.441 3.652 1.308 5.011a14.05 14.05 0 0 0 3.225 3.544 23.85 23.85 0 0 0 4.195 2.62l4.153 2.217c1.252.727 2.316 1.538 3.164 2.405a4.21 4.21 0 0 1 1.238 3.019c0 1.331-.539 2.386-1.598 3.141-1.083.764-2.287 1.148-3.591 1.148a15.57 15.57 0 0 1-1.753-.103 3.33 3.33 0 0 1-1.598-.605l-3.384-7.533-.042-.089h-2.545l-.042.075c-.788 1.341-1.538 2.887-2.231 4.603s-1.097 3.441-1.191 5.114l-.005.103.089.042c1.716.834 3.783 1.495 6.145 1.955s4.688.698 6.9.698c4.364 0 7.898-.928 10.505-2.766 2.62-1.852 3.947-4.43 3.947-7.659 0-1.823-.436-3.417-1.308-4.734m-453.745-8.203h5.4c1.725 0 3.412.141 5.02.422 1.617.281 3.07.792 4.317 1.523s2.255 1.739 2.986 2.991 1.106 2.841 1.106 4.725c0 1.505-.309 2.93-.923 4.223a10.13 10.13 0 0 1-2.517 3.337c-1.059.918-2.348 1.641-3.825 2.161s-3.075.773-4.767.773c-1.988 0-3.398-.042-4.312-.136s-1.702-.239-2.367-.427l-.117-.033V41.144zm0-22.317l.141-.023c.652-.094 1.505-.164 2.527-.211l3.708-.07c3.098 0 5.616.787 7.477 2.344 1.87 1.561 2.817 3.933 2.817 7.036 0 2.264-.708 4.261-2.1 5.939-1.387 1.669-3.183 2.897-5.344 3.647l-2.733.248-2.836.108h-3.656V18.827zm.802 45.567l5.508.206a30.24 30.24 0 0 0 6.877-.797c2.245-.525 4.284-1.373 6.052-2.527 1.763-1.144 3.216-2.63 4.313-4.416 1.097-1.777 1.655-3.933 1.655-6.408 0-1.917-.337-3.586-.998-4.955s-1.528-2.536-2.578-3.473-4.083-2.991-7.739-3.553l-.136-.023v-.309l.127-.028c1.556-.37 4.777-1.462 6.919-4.547.731-1.041 1.322-2.147 1.687-3.337a12.15 12.15 0 0 0 .553-3.577c0-2.381-.483-4.336-1.439-5.812s-2.217-2.648-3.745-3.469c-1.537-.825-3.281-1.397-5.184-1.697-1.917-.3-3.82-.45-5.662-.45l-3.483.07-2.864.141-2.545.141-2.559.07h-7.238v1.748l2.747.966 2.845.727.131.028v41.681l-.141.019c-1.898.225-3.773.769-5.583 1.617v1.753h6.539l5.944.211zm36.728-12.989c.384-.937 1.087-1.725 2.091-2.344.994-.614 2.377-1.069 4.111-1.355 1.725-.277 3.966-.417 6.661-.417h.164l-.009 7.542c-.141.478-.403 1.064-.783 1.744a10.4 10.4 0 0 1-1.491 2.02c-.614.656-1.378 1.237-2.273 1.711-.905.473-1.964.717-3.15.717-1.809 0-3.258-.572-4.312-1.697-1.045-1.116-1.58-2.719-1.58-4.753 0-1.181.192-2.245.572-3.169m-4.303 11.081c1.748 1.683 4.05 2.536 6.83 2.536 2.198 0 4.702-.15 7.205-2.32 2.794-2.428 3.295-5.569 3.295-5.569h.202l.009.159c0 4.214.558 6.567.989 7.589h1.636c1.261-.225 2.63-.581 4.031-1.041 1.369-.445 2.63-.966 3.759-1.547V61.07l-4.805-.698-.009-.131-.141-2.377-.07-2.662.173-7.439.178-8.062a22.21 22.21 0 0 0-.347-3.877c-.23-1.275-.713-2.452-1.444-3.497-.722-1.041-1.791-1.903-3.178-2.564s-3.281-.994-5.616-.994c-2.625 0-5.044.3-7.186.9-2.105.591-4.045 1.411-5.77 2.442a26.52 26.52 0 0 0 .652 4.27l1.177 4.205h1.584l3.272-8.339.061-.028a8.27 8.27 0 0 1 2.456-.605l2.212-.103c1.425 0 2.597.328 3.488.97.881.647 1.556 1.561 2.011 2.728.445 1.158.708 2.559.778 4.172.07 1.603.009 3.431-.173 5.433l-.014.145-.141.005-8.573.802c-2.437.347-4.514.914-6.169 1.697-1.641.773-2.897 1.847-3.736 3.183-.839 1.345-1.266 3.089-1.266 5.184 0 2.737.886 4.973 2.639 6.656m57.572-26.558c1.031 2.063 1.556 4.908 1.556 8.452v16.669l-.117.038a25.12 25.12 0 0 0-4.003 1.617v1.481h14.677v-1.491c-1.177-.75-2.677-1.289-4.472-1.603l-.131-.023V43.264c0-2.855-.258-5.25-.764-7.111s-1.247-3.347-2.198-4.439-2.161-1.856-3.591-2.292c-1.444-.431-3.108-.652-4.945-.652-2.555 0-4.762.759-6.558 2.264a15.31 15.31 0 0 0-4.181 5.456l-.042.098h-.342V28.77h-1.58l-4.917 1.106c-1.523.408-2.892.863-4.064 1.35v1.561l4.603.558v27.708l-.122.033c-1.838.497-3.342 1.036-4.481 1.617v1.481h14.747v-1.491c-1.298-.792-2.662-1.336-4.055-1.603l-.131-.028.009-20.573c.323-.984.778-1.945 1.341-2.859a12.16 12.16 0 0 1 2.02-2.48 9.06 9.06 0 0 1 2.7-1.744c1.017-.422 2.128-.638 3.309-.638 2.756 0 4.683 1.064 5.733 3.159m30.173-7.159c-4.908 0-8.841 1.566-11.677 4.659-2.845 3.094-4.284 7.627-4.284 13.467 0 2.719.338 5.227 1.008 7.458.661 2.222 1.673 4.153 3 5.738s3.009 2.808 5.002 3.652 4.383 1.28 7.092 1.28c5.522 0 9.656-3.984 10.481-5.531l-.727-.783c-.82.619-1.828 1.158-2.991 1.608-1.228.469-2.681.708-4.322.708-2.02 0-3.82-.408-5.348-1.205s-2.808-1.884-3.825-3.225c-1.008-1.336-1.767-2.869-2.259-4.556s-.741-3.436-.741-5.212c0-5.503.881-9.469 2.62-11.794 1.744-2.334 4.252-3.52 7.458-3.52.989 0 1.706.061 2.142.178s.825.305 1.167.548l.042.033 2.911 8.245h1.659c.53-1.223.984-2.77 1.345-4.612s.614-3.539.755-5.039c-1.219-.619-2.709-1.125-4.434-1.509-1.777-.389-3.82-.586-6.075-.586"/><path d="M301.629 58.505c-1.631 2.503-3.755 3.773-6.319 3.773-1.973 0-3.694-.403-5.109-1.205a9.68 9.68 0 0 1-3.441-3.305c-.867-1.383-1.509-3.033-1.908-4.908-.398-1.861-.595-3.867-.595-5.967 0-5.222.853-9.127 2.541-11.611 1.702-2.503 3.98-3.773 6.769-3.773 1.838 0 3.441.408 4.763 1.214 1.322.797 2.423 1.912 3.267 3.3s1.477 3.023 1.87 4.866.6 3.867.6 6.005c0 5.222-.82 9.127-2.437 11.611m4.973-24.736c-1.308-1.575-3.009-2.817-5.072-3.689s-4.556-1.312-7.406-1.312c-2.433 0-4.678.408-6.675 1.209s-3.722 1.988-5.142 3.52-2.522 3.441-3.281 5.667-1.139 4.828-1.139 7.73c0 2.723.338 5.231.998 7.458s1.678 4.153 3.009 5.737 3.023 2.808 5.034 3.656 4.439 1.275 7.195 1.275c4.959 0 8.958-1.58 11.892-4.692 2.934-3.122 4.42-7.641 4.42-13.434 0-2.719-.314-5.217-.933-7.425-.623-2.198-1.598-4.116-2.902-5.7"/></g><g transform="translate(0 2.587)"><mask id="C" fill="#fff"><use xlink:href="#A"/></mask><path d="M2.561 2.101A2.57 2.57 0 0 0 .002 4.66v91.219a2.57 2.57 0 0 0 2.559 2.559h91.214c1.411 0 2.559-1.153 2.559-2.559V4.66c0-1.406-1.148-2.559-2.559-2.559H2.561z" fill="#d9a460" mask="url(#C)"/></g><path d="M28.99 54.041c-.652-.066-1.209-.169-1.678-.3V39.904h3.759a20.69 20.69 0 0 1 3.581.3c1.148.202 2.175.563 3.061 1.078a5.82 5.82 0 0 1 2.109 2.105c.516.886.778 2.002.778 3.333 0 1.073-.22 2.067-.656 2.986s-1.027 1.706-1.781 2.358-1.655 1.163-2.705 1.528-2.18.553-3.384.553c-1.402 0-2.433-.037-3.084-.103zm-1.678-30.178c.469-.066 1.069-.122 1.805-.15l2.658-.047c2.203 0 3.966.548 5.288 1.65s1.983 2.756 1.983 4.959c0 1.603-.497 3-1.481 4.191s-2.245 2.044-3.783 2.583l-1.936.173-2.025.07h-2.508v-13.43zm43.294-3.488L45.377 45.627c-.08-1.05-.309-1.969-.694-2.766-.488-1.003-1.111-1.847-1.88-2.531s-1.65-1.228-2.634-1.631a14.29 14.29 0 0 0-2.981-.848v-.202c1.134-.272 2.119-.684 2.958-1.256s1.528-1.223 2.077-1.978a8.04 8.04 0 0 0 1.228-2.433 8.67 8.67 0 0 0 .403-2.602c0-1.739-.347-3.155-1.05-4.237a7.4 7.4 0 0 0-2.737-2.536c-1.116-.6-2.372-1.008-3.755-1.228s-2.747-.323-4.087-.323l-2.508.047-2.053.103-1.833.098-1.823.052h-5.32v1.453l2.058.731 2.058.52v29.733c-1.406.164-2.78.567-4.116 1.205v1.453h4.814l4.261.145 3.961.155a22.05 22.05 0 0 0 2.719-.178L15.687 75.341v3.848l58.758-58.814h-3.839zm10.045 6.191L21.78 85.338h3.839l24.066-23.995c-.225 1.397-.342 2.916-.342 4.561 0 3.136.408 5.855 1.228 8.138.816 2.297 1.983 4.181 3.511 5.648 1.514 1.467 3.38 2.564 5.583 3.281 2.212.717 4.716 1.078 7.519 1.078l2.334-.098a18.46 18.46 0 0 0 2.405-.356 17.6 17.6 0 0 0 2.236-.623c.698-.253 1.303-.577 1.805-.98.066-1.331.028-2.714-.103-4.134l-.455-3.534h-1.298L71.75 80.54c-.234.267-.717.483-1.448.652s-1.65.253-2.752.253c-2.067 0-3.914-.361-5.55-1.078s-3.014-1.758-4.148-3.112-2.002-2.991-2.597-4.908c-.6-1.927-.9-4.069-.9-6.441 0-2.644.333-4.941.998-6.895s1.556-3.577 2.672-4.866 2.414-2.236 3.9-2.855a12.16 12.16 0 0 1 4.72-.933l2.527.103c.853.07 1.463.202 1.828.403l2.606 7.219h1.303l.295-2.109.258-2.353.145-2.283.052-1.88c-1.134-.567-2.452-.994-3.961-1.28-1.5-.281-3.356-.417-5.564-.417-1.031 0-2.044.07-3.033.211l17.55-17.498v-3.905z" fill="#fff"/><path d="M137.595 86.641v3.464h1.838c.773 0 1.345-.15 1.716-.445s.553-.755.553-1.364c0-1.102-.787-1.655-2.363-1.655h-1.744zm0-2.236h1.636c.764 0 1.317-.117 1.659-.356s.511-.628.511-1.172c0-.506-.187-.872-.558-1.092s-.961-.333-1.767-.333h-1.481v2.953zm-2.817-5.264h4.134c1.884 0 3.253.272 4.106.806s1.275 1.388 1.275 2.559c0 .792-.183 1.444-.558 1.955a2.24 2.24 0 0 1-1.486.914v.094c.844.188 1.448.539 1.823 1.055s.558 1.195.558 2.053c0 1.209-.441 2.156-1.312 2.836s-2.067 1.017-3.567 1.017h-4.973V79.141zm21.061 7.763l-1.505-4.861-.244-.891-1.716 5.752h3.464zm1.636 5.527l-.966-3.164h-4.842l-.961 3.164h-3.037l4.687-13.341h3.445l4.711 13.341h-3.038zm18.7-.001h-3.581l-5.78-10.05h-.08l.169 3.797v6.253h-2.517V79.145h3.558l5.77 9.952h.061l-.136-3.666v-6.286h2.536V92.43zm10.901-11.133c-1.059 0-1.88.398-2.466 1.195-.577.797-.867 1.908-.867 3.333 0 2.962 1.111 4.444 3.333 4.444.933 0 2.063-.234 3.389-.698v2.362c-1.088.455-2.306.68-3.652.68-1.936 0-3.412-.586-4.434-1.758s-1.538-2.855-1.538-5.048c0-1.383.248-2.592.755-3.633s1.223-1.838 2.166-2.391 2.048-.83 3.314-.83c1.289 0 2.588.309 3.891.938l-.909 2.287-1.5-.619c-.506-.173-.998-.263-1.481-.263m10.151 4.473c0 1.481.286 2.602.848 3.352s1.402 1.13 2.527 1.13c2.245 0 3.37-1.495 3.37-4.481 0-2.995-1.12-4.491-3.352-4.491-1.125 0-1.969.38-2.536 1.13s-.858 1.875-.858 3.361m9.698 0c0 2.198-.544 3.891-1.636 5.072s-2.653 1.772-4.687 1.772-3.6-.591-4.692-1.772-1.636-2.878-1.636-5.091.548-3.9 1.641-5.067 2.662-1.748 4.706-1.748 3.6.586 4.683 1.763 1.622 2.864 1.622 5.072m14.874-.375h.928c.867 0 1.514-.173 1.945-.511.431-.347.642-.844.642-1.5s-.178-1.144-.539-1.463-.928-.469-1.697-.469h-1.28v3.942zm6.361-2.109c0 1.43-.445 2.522-1.341 3.281s-2.166 1.139-3.811 1.139H221.8v4.72h-2.817V79.143h4.247c1.608 0 2.836.347 3.675 1.041s1.256 1.73 1.256 3.103zm7.093 1.754h.909c.891 0 1.547-.15 1.973-.445s.637-.764.637-1.402c0-.628-.22-1.078-.652-1.345s-1.106-.398-2.011-.398h-.858v3.591zm0 2.292v5.095h-2.817V79.144h3.877c1.8 0 3.141.328 4.003.984s1.298 1.655 1.298 2.995c0 .783-.211 1.477-.642 2.086s-1.041 1.088-1.828 1.43l3.909 5.789h-3.127l-3.173-5.095h-1.5z" fill="#d9a460"/><mask id="D" fill="#fff"><use xlink:href="#B"/></mask><path mask="url(#D)" d="M246.938 92.427h2.822V79.143h-2.822zm15.944-13.284h2.845l-4.519 13.284h-3.07l-4.509-13.284h2.845l2.503 7.908.427 1.631.281 1.294c.066-.558.291-1.533.68-2.925l2.517-7.908zm12.289 7.761l-1.505-4.861-.244-.891-1.716 5.752h3.464zm1.636 5.527l-.961-3.164h-4.847l-.966 3.164H267l4.688-13.341h3.445l4.706 13.341h-3.033zm15.011-6.698c0-2.855-1.261-4.28-3.783-4.28h-1.495v8.653h1.205c2.714 0 4.073-1.458 4.073-4.373m2.93-.075c0 2.189-.623 3.867-1.87 5.03s-3.042 1.744-5.395 1.744h-3.764v-13.29h4.177c2.166 0 3.848.572 5.048 1.716s1.805 2.747 1.805 4.8m7.054.111c0 1.481.281 2.602.844 3.352s1.406 1.13 2.527 1.13c2.245 0 3.37-1.495 3.37-4.481 0-2.995-1.116-4.491-3.352-4.491-1.12 0-1.964.38-2.536 1.13s-.853 1.875-.853 3.361m9.694 0c0 2.198-.544 3.891-1.631 5.072s-2.658 1.772-4.692 1.772-3.6-.591-4.687-1.772-1.636-2.878-1.636-5.091.544-3.9 1.641-5.067 2.658-1.748 4.702-1.748 3.605.586 4.688 1.763 1.617 2.864 1.617 5.072" fill="#d9a460"/></g></svg>