<svg xmlns="http://www.w3.org/2000/svg" xmlns:xlink="http://www.w3.org/1999/xlink" width="137" height="48" viewBox="0 0 137 48">
    <defs>
        <path id="ka5tmkucva" d="M0 0.022L47.998 0.022 47.998 47.95 0 47.95z"/>
    </defs>
    <g fill="none" fill-rule="evenodd">
        <g>
            <g>
                <path fill="#FFF" d="M63.418 12.454h1.365c.435 0 .862.036 1.268.107.409.071.776.2 1.09.384.317.185.571.439.756.755.185.316.28.717.28 1.192 0 .38-.08.739-.234 1.066-.155.327-.369.61-.637.842-.267.231-.592.415-.966.545-.373.13-.778.196-1.205.196-.502 0-.858-.012-1.089-.035-.23-.024-.43-.06-.598-.108l-.03-.008v-4.936zm0-5.631l.036-.005c.164-.024.38-.042.639-.054.261-.011.576-.017.937-.017.782 0 1.417.198 1.888.59.472.395.712.992.712 1.777 0 .57-.179 1.075-.53 1.497-.351.421-.805.731-1.351.92-.184.026-.407.046-.69.064-.274.018-.515.027-.717.027h-.924v-4.8zm.203 11.498c.515.035.983.053 1.391.053.58 0 1.165-.068 1.737-.201.569-.134 1.084-.348 1.53-.638.446-.289.813-.663 1.09-1.114.277-.45.418-.993.418-1.617 0-.485-.085-.905-.252-1.25-.167-.346-.387-.64-.652-.877-.266-.237-1.031-.754-1.955-.897l-.035-.006v-.078l.033-.007c.393-.093 1.207-.37 1.748-1.147.184-.263.334-.542.427-.842.092-.3.139-.604.139-.903 0-.6-.123-1.094-.364-1.466-.242-.374-.56-.669-.946-.876-.388-.208-.829-.352-1.31-.427-.484-.076-.966-.114-1.432-.114-.323 0-.62.006-.88.017l-.723.036c-.223.011-.438.023-.644.035-.203.012-.42.017-.646.017h-1.828v.442c.224.089.458.17.694.243.244.076.486.138.719.184l.033.007v10.518l-.037.004c-.48.058-.953.195-1.41.408v.443h1.653c.479 0 .984.018 1.502.053zM72.902 15.044c.097-.236.274-.436.528-.593.25-.154.6-.269 1.039-.34.436-.07 1.002-.106 1.682-.106h.042l-.002 1.903c-.036.12-.102.268-.197.44-.095.172-.222.344-.377.51-.155.167-.348.312-.575.432-.229.12-.496.18-.796.18-.457 0-.823-.143-1.089-.427-.265-.282-.4-.686-.4-1.2 0-.298.05-.567.145-.8m-1.088 2.796c.442.425 1.023.64 1.726.64.556 0 1.188-.037 1.82-.585.707-.613.833-1.405.833-1.405h.052l.001.04c0 1.064.142 1.657.25 1.915h.414c.319-.057.664-.146 1.02-.262.344-.113.664-.244.95-.391v-.308l-1.216-.176-.002-.034c-.011-.212-.023-.411-.035-.6-.011-.187-.018-.413-.018-.671 0-.602.015-1.233.045-1.878.029-.654.044-1.338.044-2.033 0-.324-.03-.653-.088-.98-.058-.32-.18-.617-.363-.881-.184-.263-.454-.48-.805-.647-.352-.167-.83-.252-1.42-.252-.663 0-1.273.077-1.814.228-.532.149-1.023.356-1.46.617.025.352.08.714.166 1.077.085.364.185.72.298 1.06h.4l.826-2.104.016-.006c.203-.084.412-.135.62-.153.206-.018.394-.027.56-.027.36 0 .656.083.88.246.223.163.394.394.509.688.113.291.179.646.197 1.053.017.404.002.866-.045 1.37l-.003.036-.036.003c-.82.046-1.548.115-2.166.202-.616.087-1.14.23-1.559.428-.414.195-.732.466-.944.803-.212.339-.32.779-.32 1.308 0 .69.225 1.255.667 1.68M86.363 11.138c.26.521.393 1.239.393 2.133v4.206l-.03.01c-.363.113-.703.25-1.011.408v.373h3.71v-.376c-.298-.19-.678-.325-1.13-.404l-.035-.006v-4.493c0-.72-.065-1.324-.192-1.794-.128-.468-.315-.845-.556-1.12-.24-.275-.546-.47-.907-.578-.365-.11-.786-.166-1.25-.166-.645 0-1.203.193-1.658.572-.457.382-.812.845-1.056 1.377l-.01.024h-.087V9.331h-.4c-.425.082-.846.176-1.241.281-.386.102-.732.216-1.028.34v.393l1.164.141v6.992l-.03.009c-.465.124-.846.261-1.134.408v.373h3.727v-.375c-.329-.201-.673-.338-1.024-.406l-.034-.006.002-5.192c.083-.248.197-.49.34-.722.141-.23.313-.44.51-.625.196-.185.426-.333.682-.44.257-.107.538-.162.836-.162.696 0 1.184.269 1.45.798M93.988 9.331c-1.24 0-2.233.396-2.95 1.176-.72.781-1.084 1.925-1.084 3.399 0 .686.086 1.319.254 1.881s.424 1.049.76 1.448c.335.398.76.708 1.263.922.505.214 1.108.323 1.792.323 1.396 0 2.441-1.006 2.65-1.397l-.184-.197c-.209.156-.463.293-.757.406-.309.118-.676.179-1.09.179-.511 0-.966-.103-1.352-.305-.386-.2-.711-.474-.967-.813-.255-.337-.447-.724-.571-1.15-.124-.425-.187-.867-.187-1.315 0-1.389.222-2.39.66-2.976.442-.59 1.076-.889 1.887-.889.25 0 .43.016.54.046.11.03.21.077.295.138l.011.008.736 2.081h.42c.134-.309.248-.7.339-1.164.09-.466.155-.893.19-1.272-.307-.156-.684-.283-1.12-.38-.448-.099-.965-.149-1.535-.149M103.554 16.835c-.412.632-.95.953-1.597.953-.499 0-.933-.103-1.29-.305-.358-.203-.651-.483-.871-.834-.22-.349-.381-.765-.482-1.237-.1-.47-.15-.977-.15-1.506 0-1.318.215-2.304.642-2.93.43-.632 1.005-.953 1.71-.953.464 0 .87.103 1.204.306.333.202.611.483.825.833.214.35.373.763.473 1.229.1.465.15.975.15 1.515 0 1.317-.206 2.303-.614 2.929m1.256-6.242c-.33-.397-.76-.71-1.281-.93-.522-.22-1.152-.332-1.872-.332-.614 0-1.182.103-1.687.306-.503.202-.94.501-1.3.888-.358.387-.637.868-.828 1.43-.192.562-.289 1.218-.289 1.95 0 .687.085 1.32.254 1.882.168.562.423 1.049.76 1.448.335.398.763.708 1.272.922.51.214 1.122.323 1.818.323 1.253 0 2.263-.4 3.004-1.185.742-.787 1.118-1.927 1.118-3.39 0-.686-.08-1.316-.236-1.873-.157-.556-.403-1.04-.733-1.439M71.253 32.68c-.032-.323-.07-.631-.114-.917-.046-.287-.094-.535-.144-.736l-.008-.032h-.844l-.942 2.686c-.084.092-.245.166-.478.22-.243.055-.545.084-.897.084-1.226 0-2.21-.488-2.922-1.45-.716-.965-1.08-2.367-1.08-4.165 0-.994.103-1.859.304-2.569.201-.709.48-1.297.832-1.748.35-.449.756-.781 1.205-.987.45-.206.939-.31 1.452-.31.263 0 .524.018.775.056.239.036.415.083.526.14l1.043 2.862.01.027h.864l.008-.033c.051-.234.106-.52.162-.85.057-.335.108-.681.153-1.03.044-.35.077-.687.095-1.002.02-.315.03-.579.03-.784v-.026l-.025-.011c-.433-.204-.998-.368-1.68-.49-.68-.12-1.45-.18-2.286-.18-.89 0-1.75.131-2.559.392-.809.26-1.53.677-2.142 1.237-.612.56-1.106 1.286-1.47 2.157-.362.871-.546 1.924-.546 3.13 0 1.22.168 2.278.499 3.148.331.872.806 1.601 1.412 2.168.606.566 1.35.986 2.21 1.247.859.26 1.829.392 2.882.392.699 0 1.39-.058 2.058-.172.67-.114 1.236-.315 1.684-.596l.02-.012v-.023c0-.25-.007-.54-.02-.859-.012-.313-.035-.637-.067-.964M78.14 30.47v1.855c-.038.123-.091.267-.16.428-.067.16-.167.31-.296.445-.13.136-.29.255-.476.354-.184.098-.408.147-.667.147-.393 0-.703-.13-.922-.385-.221-.258-.334-.627-.334-1.097 0-.31.041-.578.122-.795.08-.213.224-.392.432-.532.21-.142.506-.245.88-.308.368-.06.846-.099 1.42-.112m2.744 2.527c-.006-.196-.01-.433-.01-.723 0-.645.017-1.282.048-1.892.032-.618.048-1.314.048-2.069 0-.42-.052-.821-.154-1.192-.103-.373-.29-.702-.554-.98-.264-.276-.632-.497-1.094-.657-.46-.16-1.061-.24-1.787-.24-.852 0-1.67.096-2.432.286-.764.19-1.398.456-1.883.787l-.02.014.002.025c.025.215.067.442.125.672.058.232.13.461.211.68.083.223.173.435.269.633.096.198.196.376.298.528l.013.019h.89l.9-2.295c.32-.12.675-.18 1.055-.18.622 0 1.015.24 1.2.734.186.494.231 1.283.135 2.345-1.025.051-1.91.134-2.63.246-.731.115-1.338.292-1.805.528-.469.238-.818.548-1.037.92-.219.374-.33.855-.33 1.431 0 .41.078.785.233 1.113.154.328.37.611.64.842.27.232.589.413.948.541.359.128.755.193 1.177.193.397 0 .761-.058 1.082-.174.32-.115.603-.267.842-.454.237-.186.436-.4.59-.638.148-.228.256-.468.322-.715h.023c.012.401.031.747.056 1.029.026.295.104.595.232.89l.01.024h.682c.22-.026.47-.062.745-.105.283-.045.57-.103.852-.172.283-.07.56-.143.822-.22.262-.076.473-.154.627-.231l.023-.012V33.8l-1.32-.19c-.023-.214-.038-.42-.044-.613M98.62 33.82V29.33c0-.8-.064-1.471-.191-1.995-.128-.525-.32-.948-.57-1.257-.253-.31-.567-.53-.935-.652-.366-.122-.791-.184-1.263-.184-.769 0-1.432.221-1.972.657-.498.403-.87.928-1.104 1.562-.079-.415-.2-.763-.36-1.036-.18-.309-.399-.554-.65-.728-.251-.173-.529-.294-.826-.358-.295-.064-.6-.097-.905-.097-.731 0-1.366.215-1.886.638-.47.383-.816.845-1.029 1.375v-2.013h-.695l-.754.096c-.298.038-.61.086-.927.143-.318.057-.63.125-.928.2-.3.077-.555.161-.76.25l-.024.011v.788l1.258.153v6.937c-.219.062-.434.13-.64.203-.218.078-.418.162-.595.251l-.023.012v.79h5.042v-.786l-.018-.013c-.287-.2-.602-.352-.936-.455v-5.31c.138-.497.355-.904.647-1.208.289-.302.635-.455 1.028-.455.27 0 .492.059.663.175.17.115.306.3.404.553.1.256.167.59.198.99.032.408.048.908.048 1.486v3.77c-.181.062-.35.133-.502.213-.156.08-.302.161-.432.24l-.02.012v.789h4.851v-.79l-.02-.012c-.153-.089-.318-.173-.49-.25-.166-.074-.354-.142-.558-.203v-5.115c.124-.564.318-1.021.574-1.359.25-.331.602-.499 1.044-.499.597 0 .974.222 1.153.68.182.464.274 1.198.274 2.18v4.114c-.335.115-.65.267-.935.454l-.019.012v.788h5.043v-.79l-.022-.012c-.398-.224-.814-.377-1.237-.457M105.262 34.015c-.194-.066-.415-.131-.658-.193v-8.579h-.695c-.231.026-.501.062-.802.105-.313.046-.628.098-.936.153-.318.057-.624.125-.91.2-.287.077-.529.155-.72.23l-.026.011v.79l1.26.152v6.937c-.232.062-.447.127-.64.194-.205.07-.406.158-.598.26l-.022.012v.79h5.348v-.789l-.021-.012c-.18-.102-.374-.19-.58-.26M101.955 23.45c.308.26.71.391 1.196.391s.888-.132 1.195-.39c.31-.262.468-.618.468-1.06 0-.456-.158-.819-.468-1.08-.308-.26-.71-.39-1.195-.39-.485 0-.888.13-1.196.39-.31.261-.467.624-.467 1.08 0 .442.157.798.467 1.06M116.97 33.82v-4.527c0-.788-.074-1.45-.22-1.968-.148-.519-.363-.939-.639-1.247-.277-.31-.62-.529-1.02-.651-.397-.122-.85-.184-1.347-.184-.769 0-1.431.198-1.97.59-.499.36-.887.791-1.155 1.28v-1.87h-.694c-.269.026-.568.062-.889.105-.326.046-.648.1-.956.163-.31.063-.603.13-.87.2-.27.07-.49.145-.655.222l-.024.01v.788l1.258.153v6.937c-.507.138-.923.291-1.236.454l-.022.012v.79h5.137v-.787l-.019-.013c-.18-.115-.352-.21-.511-.28-.152-.067-.327-.125-.519-.175v-5.269c.175-.522.437-.942.778-1.246.34-.303.751-.457 1.221-.457.565 0 .963.22 1.184.655.225.444.339 1.07.339 1.862v4.458c-.205.072-.386.144-.538.21-.162.072-.326.153-.49.24l-.021.012v.79h5.137v-.787l-.018-.012c-.327-.214-.744-.368-1.24-.459M125.054 33.235c-.161.29-.355.503-.576.632-.222.129-.471.194-.742.194-.474 0-.864-.09-1.161-.27-.298-.18-.536-.433-.71-.756-.175-.324-.298-.726-.367-1.195-.07-.472-.105-.999-.105-1.565 0-.707.042-1.31.124-1.793.081-.482.205-.875.367-1.168.16-.29.36-.502.594-.631.234-.13.516-.195.838-.195.435 0 .8.091 1.084.27.285.18.514.433.682.755.168.324.289.724.358 1.187.07.467.104.997.104 1.575 0 .704-.041 1.308-.123 1.792-.082.483-.205.876-.367 1.168m2.327-6.579c-.416-.44-.954-.79-1.599-1.038-.644-.249-1.422-.375-2.313-.375-.79 0-1.507.117-2.132.346-.625.23-1.166.566-1.607 1-.441.434-.785.967-1.02 1.586-.237.617-.356 1.323-.356 2.1 0 .725.103 1.405.307 2.022.204.619.522 1.156.944 1.596.422.44.96.79 1.598 1.039.638.248 1.4.374 2.266.374.79 0 1.51-.116 2.14-.345.633-.23 1.177-.566 1.618-1 .44-.434.78-.967 1.01-1.586.23-.618.347-1.324.347-2.1 0-.724-.097-1.405-.288-2.022-.192-.619-.5-1.156-.915-1.597M136.425 31.147c-.237-.358-.535-.673-.887-.934-.35-.261-.738-.496-1.15-.7-.41-.2-.794-.405-1.143-.607-.345-.2-.637-.42-.868-.651-.226-.225-.341-.494-.341-.799 0-.268.096-.511.285-.725.188-.211.47-.319.837-.319.2 0 .385.01.548.028.155.018.306.057.45.115l.794 1.926.01.026h.706l.01-.027c.142-.386.29-.812.44-1.268.152-.463.255-.904.306-1.312l.004-.032-.028-.012c-.446-.19-.972-.342-1.564-.45-.592-.108-1.24-.163-1.924-.163-.497 0-.966.062-1.394.183-.429.121-.802.293-1.11.51-.309.22-.556.49-.736.804-.182.316-.273.672-.273 1.059 0 .54.12 1.002.36 1.374.236.37.534.698.886.973.35.273.738.515 1.152.718.407.2.792.405 1.141.608.344.2.636.422.87.66.225.232.34.51.34.828 0 .365-.148.655-.44.861-.296.21-.628.316-.987.316-.15 0-.312-.01-.482-.028-.16-.018-.307-.074-.438-.167l-.93-2.065-.011-.025h-.7l-.012.02c-.215.368-.422.793-.612 1.263-.192.472-.302.945-.328 1.404l-.001.027.025.012c.471.23 1.04.41 1.688.537.65.127 1.287.191 1.896.191 1.2 0 2.17-.256 2.885-.76.72-.507 1.086-1.214 1.086-2.1 0-.501-.12-.938-.36-1.299" transform="translate(-397 -704) translate(397 704)"/>
                <g transform="translate(-397 -704) translate(397 704) translate(0 .002)">
                    <mask id="ycyn748d1b" fill="#fff">
                        <use xlink:href="#ka5tmkucva"/>
                    </mask>
                    <path fill="#D9AB6E" d="M1.275.022C.574.022 0 .595 0 1.296v45.38c0 .701.574 1.274 1.275 1.274h45.448c.701 0 1.275-.573 1.275-1.273V1.296c0-.7-.574-1.274-1.275-1.274H1.275z" mask="url(#ycyn748d1b)"/>
                </g>
                <path fill="#FFF" d="M14.444 24.578c-.324-.033-.603-.082-.836-.149v-6.884h1.872c.615 0 1.212.05 1.786.15.574.1 1.083.279 1.525.536.441.26.79.609 1.05 1.046.257.442.386.996.386 1.66 0 .533-.108 1.028-.325 1.485-.217.456-.513.848-.887 1.171-.375.324-.823.579-1.348.761-.525.183-1.087.277-1.686.277-.699 0-1.212-.02-1.537-.053zm-.836-15.015c.233-.031.532-.058.9-.074.365-.017.805-.024 1.323-.024 1.098 0 1.976.274 2.634.822.658.549.987 1.371.987 2.469 0 .798-.246 1.492-.736 2.083-.492.59-1.12 1.018-1.886 1.286-.25.033-.57.061-.963.085-.39.026-.727.037-1.011.037h-1.248V9.563zm21.57-1.734l-12.57 12.563c-.04-.52-.155-.98-.346-1.375-.241-.5-.553-.92-.936-1.26-.384-.34-.821-.61-1.312-.812-.491-.198-.987-.338-1.485-.422v-.1c.565-.134 1.056-.34 1.472-.624.418-.282.763-.61 1.037-.985.275-.373.478-.776.612-1.21.133-.432.2-.864.2-1.296 0-.863-.174-1.569-.524-2.107-.35-.54-.804-.959-1.362-1.26-.557-.3-1.182-.504-1.873-.612-.69-.108-1.37-.162-2.036-.162-.466 0-.883.01-1.249.025l-1.024.05-.912.049c-.292.018-.594.027-.911.027H9.31v.722c.332.134.674.254 1.024.362.35.108.69.196 1.025.261v14.791c-.7.083-1.384.282-2.05.6v.722h2.399c.682 0 1.39.025 2.123.075.733.05 1.39.076 1.973.076.454 0 .906-.033 1.355-.09l-9.345 9.34v1.912L37.092 7.83h-1.914zM40.183 10.909L10.85 40.149h1.913l11.992-11.938c-.114.694-.172 1.45-.172 2.27 0 1.56.202 2.912.611 4.049.407 1.142.99 2.077 1.749 2.809.756.73 1.685 1.275 2.784 1.632 1.1.358 2.35.537 3.746.537.366 0 .754-.017 1.162-.05.408-.034.807-.091 1.198-.176.392-.081.763-.186 1.113-.31.35-.126.65-.287.899-.487.034-.665.016-1.351-.05-2.059-.067-.704-.142-1.292-.226-1.758h-.647l-1.175 3.094c-.117.132-.358.24-.723.324-.365.084-.822.124-1.37.124-1.03 0-1.95-.178-2.764-.536-.813-.356-1.502-.874-2.068-1.547-.564-.671-.995-1.489-1.295-2.443-.298-.956-.448-2.024-.448-3.204 0-1.315.167-2.458.499-3.43.332-.974.775-1.78 1.332-2.42.556-.64 1.203-1.114 1.942-1.422.739-.307 1.524-.462 2.353-.462.415 0 .835.017 1.259.05.423.035.727.1.908.2l1.299 3.591h.65c.05-.314.1-.665.148-1.048.051-.382.094-.772.127-1.17.033-.4.057-.779.074-1.136.017-.358.025-.668.025-.935-.567-.283-1.223-.494-1.973-.636-.75-.142-1.673-.21-2.773-.21-.514 0-1.018.035-1.51.105l8.743-8.705V10.91z" transform="translate(-397 -704) translate(397 704)"/>
                <path fill="#D9AB6E" d="M62.017 42.437v.95h.504c.213 0 .37-.041.472-.123.102-.081.152-.206.152-.374 0-.302-.216-.453-.649-.453h-.48zm0-.614h.45c.209 0 .36-.032.455-.097.094-.065.14-.172.14-.321 0-.14-.05-.24-.153-.3-.102-.061-.264-.092-.485-.092h-.407v.81zm-.774-1.443h1.136c.517 0 .893.074 1.127.22.234.148.35.382.35.702 0 .218-.05.397-.153.536-.102.14-.238.224-.408.252v.025c.231.052.398.148.5.29.103.14.154.328.154.563 0 .332-.12.591-.36.777-.241.187-.568.28-.98.28h-1.366V40.38zM66.97 42.509c-.244-.786-.382-1.23-.413-1.334-.03-.103-.053-.184-.066-.244-.055.213-.212.739-.472 1.578h.951zm.45 1.516l-.265-.868h-1.33l-.265.868h-.834l1.288-3.66h.946l1.293 3.66h-.833zM72.497 44.025h-.983l-1.588-2.757h-.023c.032.487.048.834.048 1.041v1.716h-.692V40.38h.976l1.586 2.73h.017c-.025-.474-.037-.809-.037-1.005V40.38h.696v3.645zM75.435 40.97c-.29 0-.516.11-.676.329-.16.218-.24.523-.24.913 0 .813.306 1.22.916 1.22.257 0 .567-.065.932-.193v.649c-.3.124-.634.186-1.004.186-.53 0-.937-.16-1.218-.482-.281-.322-.422-.783-.422-1.385 0-.379.069-.71.207-.996.138-.284.337-.503.596-.655.258-.152.562-.228.91-.228.354 0 .71.085 1.068.256l-.25.629c-.136-.065-.274-.122-.412-.17-.138-.048-.273-.072-.407-.072M78.172 42.197c0 .408.077.714.232.92.155.206.386.31.694.31.617 0 .926-.41.926-1.23 0-.82-.307-1.231-.92-1.231-.309 0-.541.103-.697.31-.157.207-.235.514-.235.921m2.664 0c0 .604-.15 1.067-.45 1.391-.3.324-.729.486-1.288.486-.56 0-.988-.162-1.288-.486-.3-.324-.45-.79-.45-1.396 0-.606.15-1.07.451-1.39.3-.32.731-.48 1.292-.48.56 0 .99.162 1.287.484.297.323.446.786.446 1.391M84.717 42.095h.254c.238 0 .416-.047.535-.14.118-.095.177-.231.177-.41 0-.182-.05-.316-.149-.402-.099-.086-.254-.13-.465-.13h-.352v1.082zm1.747-.578c0 .392-.123.692-.368.9-.246.207-.595.311-1.047.311h-.332v1.297h-.774V40.38h1.166c.442 0 .779.095 1.01.285.23.19.345.475.345.852zM88.358 41.998h.25c.244 0 .424-.04.54-.122.117-.082.176-.21.176-.384 0-.173-.06-.296-.179-.369-.119-.073-.303-.11-.553-.11h-.234v.985zm0 .628v1.399h-.774V40.38h1.063c.496 0 .863.09 1.101.27.238.18.357.455.357.822 0 .214-.059.405-.177.572-.118.167-.286.298-.502.393.55.819.907 1.348 1.074 1.588h-.86l-.87-1.399h-.412zM91.507 44.025L92.281 44.025 92.281 40.38 91.507 40.38zM95.828 40.38h.781l-1.24 3.645h-.844l-1.238-3.645h.781l.687 2.169c.038.128.077.277.118.447.04.17.066.29.076.355.019-.152.081-.42.188-.802l.691-2.169zM99.154 42.509c-.245-.786-.383-1.23-.413-1.334-.031-.103-.053-.184-.067-.244-.054.213-.212.739-.471 1.578h.95zm.45 1.516l-.266-.868h-1.33l-.265.868h-.833l1.288-3.66h.946l1.293 3.66h-.834zM103.667 42.187c0-.782-.346-1.174-1.038-1.174h-.412v2.373h.332c.745 0 1.118-.4 1.118-1.199m.804-.02c0 .6-.171 1.06-.513 1.379-.342.32-.836.479-1.482.479h-1.033V40.38h1.146c.596 0 1.058.157 1.388.471.33.314.494.753.494 1.316M106.354 42.197c0 .408.077.714.232.92.154.206.386.31.694.31.617 0 .926-.41.926-1.23 0-.82-.307-1.231-.921-1.231-.308 0-.54.103-.697.31-.156.207-.234.514-.234.921m2.663 0c0 .604-.15 1.067-.45 1.391-.299.324-.728.486-1.287.486-.56 0-.989-.162-1.289-.486-.3-.324-.449-.79-.449-1.396 0-.606.15-1.07.45-1.39.301-.32.732-.48 1.293-.48.56 0 .99.162 1.287.484.297.323.445.786.445 1.391" transform="translate(-397 -704) translate(397 704)"/>
            </g>
        </g>
    </g>
</svg>
