<svg
		id="logo"
		xmlns="http://www.w3.org/2000/svg"
		width="193"
		height="51"
		aria-hidden="true"
	>
		<g fill="none" fill-rule="nonzero">
			<path
				fill="#FFF"
				d="M46.028 25.27c1.008-1.03 1.613-2.471 1.613-4.325 0-1.853-.504-3.295-1.613-4.222-1.008-1.03-2.218-1.544-3.629-1.544-1.31 0-2.52.514-3.629 1.544-1.008 1.03-1.613 2.472-1.613 4.325 0 1.854.504 3.296 1.613 4.222 1.008 1.03 2.218 1.442 3.63 1.442 1.41.103 2.62-.412 3.628-1.442m-12.903 4.428C31.008 27.433 30 24.55 30 21.048c0-3.5 1.008-6.384 3.125-8.65C35.242 10.133 37.762 9 40.786 9s5.343 1.133 6.956 3.295V9.206H55v23.479h-7.258v-3.399c-1.714 2.472-4.133 3.708-7.057 3.708-3.024.103-5.544-1.03-7.56-3.296M65.487 9.313v3.444C67.026 10.252 69.385 9 72.77 9c2.77 0 5.026.94 6.667 2.713C81.179 13.487 82 15.991 82 19.122V33h-7.385V20.06c0-1.564-.41-2.712-1.23-3.547-.82-.835-1.95-1.252-3.385-1.252-1.436 0-2.564.417-3.385 1.252-.82.835-1.23 1.983-1.23 3.548V33H58V9.209h7.487v.104zM87.459 29.718C85.153 27.564 84 24.59 84 21s1.153-6.564 3.459-8.718C89.764 10.128 92.699 9 96.262 9c3.04 0 5.555.718 7.65 2.154 2.097 1.436 3.46 3.384 4.088 6.051h-8.175c-.733-1.436-1.886-2.051-3.458-2.051-1.572 0-2.83.513-3.564 1.64-.733 1.027-1.152 2.462-1.152 4.206 0 1.744.419 3.18 1.152 4.205.734 1.026 1.887 1.641 3.459 1.641.943 0 1.677-.102 2.2-.41.525-.308 1.049-.82 1.363-1.641H108c-.629 2.461-2.096 4.513-4.192 5.949C101.712 32.179 99.197 33 96.262 33c-3.668 0-6.603-1.128-8.803-3.282M125.086 25.378c1.025-1.03 1.434-2.472 1.434-4.326 0-1.958-.512-3.4-1.536-4.327-1.025-1.03-2.152-1.545-3.586-1.545-1.332 0-2.562.515-3.587 1.545-1.024 1.03-1.434 2.472-1.434 4.327 0 1.957.512 3.399 1.537 4.326 1.025 1.03 2.254 1.545 3.586 1.545 1.434 0 2.664-.515 3.586-1.545m-12.5 4.326c-2.459-2.163-3.586-5.15-3.586-8.756 0-3.605 1.23-6.489 3.586-8.652C115.046 10.133 118.016 9 121.5 9c3.586 0 6.557 1.133 8.914 3.296C132.77 14.46 134 17.343 134 20.948c0 3.606-1.23 6.49-3.586 8.756C128.057 31.97 125.086 33 121.5 33c-3.586 0-6.455-1.03-8.914-3.296M150 9.488v5.98h-3.145V33h-7.549V15.469H137V9.488h2.306v-.929c0-2.99.84-5.156 2.517-6.496C143.5.722 146.12 0 149.58 0v6.084c-1.049 0-1.678.207-2.097.516-.42.413-.63 1.031-.63 1.96v.928H150zM166.129 25.275c1.008-1.03 1.613-2.472 1.613-4.327 0-1.854-.504-3.296-1.613-4.223-1.008-1.03-2.218-1.545-3.629-1.545-1.31 0-2.52.515-3.629 1.545-1.008 1.03-1.613 2.472-1.613 4.327 0 1.854.504 3.296 1.613 4.223 1.008 1.03 2.218 1.442 3.629 1.442 1.31.103 2.52-.412 3.629-1.442m-13.004 4.429c-2.117-2.266-3.125-5.15-3.125-8.652 0-3.503 1.008-6.387 3.125-8.653C155.242 10.133 157.762 9 160.786 9s5.343 1.133 6.956 3.296v-3.09H175v23.485h-7.258v-3.4c-1.714 2.473-4.133 3.709-7.057 3.709-2.923 0-5.544-1.03-7.56-3.296M186.252 9.313v4.383C187.964 10.566 190.18 9 193 9v7.409h-1.813c-1.712 0-2.92.417-3.727 1.148-.805.834-1.208 2.19-1.208 4.173V33H179V9.209h7.252v.104z"
			></path>
			<path
				fill="#67C5AD"
				d="M16 14.528h-4.528V10H4.428v4.528H0v6.541h4.428V26h7.044v-4.93H16z"
			></path>
			<path
				fill="#FFF"
				d="M26.249 20.73c-1.236-1.317-2.884-2.129-4.841-2.433 4.017-1.115 5.974-3.346 5.974-6.692 0-2.23-.927-4.056-2.781-5.476S20.275 4 17.185 4H4v5.374h12.258c1.648 0 3.502.913 3.502 2.94 0 1.927-1.34 2.536-2.781 2.738v6.591h.103c2.678 0 3.399 1.927 3.399 2.94 0 2.029-1.34 3.043-3.811 3.043H4V33h13.906c3.193 0 5.665-.71 7.416-2.028C27.073 29.654 28 27.727 28 25.395c0-1.724-.515-3.346-1.751-4.664"
			></path>
			<path
				fill="#67C5AD"
				d="M30 43h1.071v2.8h2.858V43H35v7h-1.071v-3.123H31.07V50H30zM42 43h3.83v1.077H43.02v1.83h2.639v.97H43.02v2.046H46V50h-4zM55.294 47.242l-1.176-2.863-1.294 2.863h2.47zM53.412 43h1.176L58 50h-1.647l-.706-1.59h-3.412L51.53 50H50l3.412-7zM62 43h1.17v5.923H66V50h-4zM70.944 44.077H69V43h5v1.077h-1.944V50h-1.112zM80 43h1.09v2.8h2.82V43H85v7h-1.09v-3.123h-2.82V50H80zM98.96 48.94h.88c.48 0 1.2-.107 1.2-1.061 0-.743-.4-.955-1.2-.955h-.88v2.015zm0-3.182h.88c.64 0 .96-.319.96-.955 0-.636-.32-.848-1.04-.848h-.8v1.803zM98 43h2.08c.8 0 1.68.53 1.68 1.803 0 .742-.4 1.273-.96 1.485.72.106 1.2.742 1.2 1.697C102 49.47 100.96 50 99.92 50H98v-7zM111.176 47.242L110 44.38l-1.294 2.863h2.47zM109.412 43h1.176L114 50h-1.647l-.706-1.59h-3.412L107.53 50H106l3.412-7zM118 43h1.867l3.733 5.277V43h1.4v7h-1.75l-3.85-5.385V50H118zM130 43h1.017v3.015L133.475 43h1.356l-2.712 3.23L135 50h-1.44l-2.543-3.554V50H130zM141 43h1v7h-1zM146 43h1.867l3.616 5.277V43H153v7h-1.867l-3.733-5.385V50H146zM165 50.42c-.778.348-1.667.58-2.889.58-2.444 0-4.111-1.623-4.111-4.058 0-2.435 1.778-3.942 4.111-3.942 1.222 0 2.222.348 2.889.928l-1 1.043c-.333-.464-1.111-.812-1.889-.812-1.555 0-2.667 1.276-2.667 2.783 0 1.623 1 2.783 2.667 2.783.556 0 1.111-.116 1.445-.232v-1.971H162v-1.16h2.889v4.058H165z"
			></path>
		</g>
	</svg>