<svg xmlns="http://www.w3.org/2000/svg" viewBox="0 0 188.71 49.61"><defs><style>.cls-1,.texto{fill:#113456}.cls-2{fill:#67c5ad}</style></defs><g id="Capa_2" data-name="Capa 2"><g id="Capa_1-2" data-name="Capa 1"><path class="texto" d="M45.27 24.74a5.46 5.46 0 0 0 1.55-4.16 5.39 5.39 0 0 0-1.55-4.14 5.09 5.09 0 0 0-7.13 0 5.45 5.45 0 0 0-1.55 4.16 5.39 5.39 0 0 0 1.55 4.14 5.09 5.09 0 0 0 7.13 0M32.38 29a11.65 11.65 0 0 1-3.11-8.37 11.72 11.72 0 0 1 3.11-8.39A10 10 0 0 1 40 8.94a8 8 0 0 1 6.86 3.22v-3H54V32h-7.18v-3.34a8.17 8.17 0 0 1-7 3.59A9.93 9.93 0 0 1 32.38 29M64.28 9.18v3.35q2.22-3.59 7.09-3.59a8.62 8.62 0 0 1 6.53 2.61 9.86 9.86 0 0 1 2.5 7.1V32h-7.14V19.6a4.62 4.62 0 0 0-1.2-3.41 5.1 5.1 0 0 0-6.59 0 4.63 4.63 0 0 0-1.19 3.41V32h-7.17V9.18zM86.09 29.06a11.34 11.34 0 0 1-3.25-8.49 11.28 11.28 0 0 1 3.25-8.47 11.56 11.56 0 0 1 8.41-3.16 12.44 12.44 0 0 1 7.26 2.06 9.78 9.78 0 0 1 3.94 5.9h-7.75a3.42 3.42 0 0 0-3.29-2 3.88 3.88 0 0 0-3.4 1.57 7 7 0 0 0-1.11 4.14 7 7 0 0 0 1.11 4.14 3.73 3.73 0 0 0 3.25 1.57 4.11 4.11 0 0 0 2.1-.45 3.79 3.79 0 0 0 1.34-1.59h7.76a10.12 10.12 0 0 1-4 5.84 12.06 12.06 0 0 1-7.22 2.16 11.51 11.51 0 0 1-8.41-3.18M123 24.82a5.86 5.86 0 0 0 1.43-4.25 5.68 5.68 0 0 0-1.43-4.22 4.79 4.79 0 0 0-3.48-1.45 4.72 4.72 0 0 0-3.46 1.45 5.73 5.73 0 0 0-1.45 4.22 5.7 5.7 0 0 0 1.49 4.25 4.83 4.83 0 0 0 3.5 1.47 4.62 4.62 0 0 0 3.4-1.47M110.85 29a10.93 10.93 0 0 1-3.55-8.49 10.77 10.77 0 0 1 3.52-8.43 13.59 13.59 0 0 1 17.43 0 10.8 10.8 0 0 1 3.5 8.43 11 11 0 0 1-3.46 8.49 12.3 12.3 0 0 1-8.69 3.23 12.52 12.52 0 0 1-8.75-3.23M145.45 9.18V15h-3v17h-7.15V15h-2.18V9.18h2.18v-.85q0-4.33 2.37-6.33t7.45-2v5.92a3.09 3.09 0 0 0-2 .53 2.41 2.41 0 0 0-.61 1.88v.86zM162.78 24.74a5.46 5.46 0 0 0 1.55-4.16 5.39 5.39 0 0 0-1.55-4.14 5.09 5.09 0 0 0-7.13 0 5.46 5.46 0 0 0-1.55 4.16 5.39 5.39 0 0 0 1.55 4.14 5.09 5.09 0 0 0 7.13 0M149.9 29a11.65 11.65 0 0 1-3.11-8.37 11.72 11.72 0 0 1 3.11-8.39 10 10 0 0 1 7.57-3.29 8 8 0 0 1 6.86 3.22v-3h7.17V32h-7.17v-3.34a8.18 8.18 0 0 1-7 3.59A9.93 9.93 0 0 1 149.9 29M182 9.18v4.25q2.52-4.49 6.71-4.49V16h-1.76a5.3 5.3 0 0 0-3.71 1.14q-1.24 1.14-1.24 4V32h-7.18V9.18z"></path><path class="cls-2" d="M15.91 14.2h-4.46V9.72H4.46v4.48H0v6.51h4.46v4.84h6.99v-4.84h4.46V14.2z"></path><path class="cls-1" d="M26 19.8a7.41 7.41 0 0 0-4.74-2.41q5.83-1.71 5.83-6.57a6.6 6.6 0 0 0-2.66-5.39 11.16 11.16 0 0 0-7.15-2.12H4.47V8.6h11.88c1.64 0 3.44.86 3.44 2.9S18.44 14 17 14.17v6.54h.1a3 3 0 0 1 3.32 2.94c0 2-1.29 3-3.68 3H4.47V32H18a11.41 11.41 0 0 0 7.2-2 6.56 6.56 0 0 0 2.58-5.45A6.88 6.88 0 0 0 26 19.8"></path><path class="cls-2" d="M29.35 42.85h1.2v2.66h3.17v-2.66h1.2v6.59h-1.2v-2.92h-3.17v2.92h-1.2v-6.59zM40.25 42.85h4.48v1.03h-3.28v1.67h3.11v.99h-3.11v1.86h3.46v1.04h-4.66v-6.59zM53.78 46.93l-1-2.68-1.06 2.68zm-1.53-4.08h1l2.92 6.59h-1.34l-.63-1.51h-2.94l-.61 1.51H49.3zM60.75 42.85h1.21v5.55h2.88v1.04h-4.09v-6.59zM70.11 43.88h-2.08v-1.03h5.36v1.03h-2.08v5.56h-1.2v-5.56zM77.98 42.85h1.21v2.66h3.16v-2.66h1.21v6.59h-1.21v-2.92h-3.16v2.92h-1.21v-6.59zM96.29 48.45h1.08c.62 0 1.51-.12 1.51-1 0-.69-.49-.93-1.46-.93h-1.13zm0-2.92h1.07c.8 0 1.23-.33 1.23-.89s-.43-.82-1.34-.82h-1zm-1.2-2.68h2.64c1 0 2.08.46 2.08 1.66A1.47 1.47 0 0 1 98.63 46a1.54 1.54 0 0 1 1.46 1.55c0 1.43-1.28 1.92-2.56 1.92h-2.44zM108.66 46.93l-1-2.68-1.06 2.68zm-1.53-4.08h1l2.92 6.59h-1.38l-.63-1.51h-2.94l-.61 1.51h-1.35zM115.64 42.85h1.59l3.15 4.93h.02v-4.93h1.21v6.59h-1.53l-3.22-5.09h-.02v5.09h-1.2v-6.59zM126.94 42.85h1.2v2.85h.03l2.83-2.85h1.63l-3.17 3.04 3.38 3.55h-1.7l-2.97-3.3h-.03v3.3h-1.2v-6.59zM137.39 42.85h1.21v6.59h-1.21zM143.91 42.85h1.59l3.15 4.93h.02v-4.93h1.2v6.59h-1.53l-3.21-5.09h-.02v5.09h-1.2v-6.59zM161.1 49.09a5.9 5.9 0 0 1-2.55.51 3.47 3.47 0 1 1 0-6.92 3.94 3.94 0 0 1 2.57.83l-.83.87a2.44 2.44 0 0 0-1.73-.67 2.42 2.42 0 0 0 .06 4.84 3.58 3.58 0 0 0 1.35-.23v-1.67h-1.42v-1h2.59z"></path></g></g></svg>