<svg xmlns="http://www.w3.org/2000/svg" xmlns:xlink="http://www.w3.org/1999/xlink" width="260" height="151"><defs><linearGradient id="A" x1="55.734%" x2="54.897%" y1="33.135%" y2="66.865%"><stop offset="0%" stop-color="#1f5270"/><stop offset="100%" stop-color="#082b40"/></linearGradient><linearGradient id="B" x1="37.815%" x2="85.284%" y1="43.703%" y2="71.945%"><stop offset="0%" stop-color="#033450"/><stop offset="100%" stop-color="#00243a"/></linearGradient><linearGradient id="C" x1="61.674%" x2="32.169%" y1="38.429%" y2="68.646%"><stop offset="0%" stop-color="#fff" stop-opacity="0"/><stop offset="100%" stop-color="#fff" stop-opacity=".22"/></linearGradient><rect id="D" width="210" height="79" x="25" y="72" rx="20"/><rect id="E" width="260" height="151" rx="20"/><filter id="F" width="121.4%" height="157%" x="-10.7%" y="-28.5%"><feOffset in="SourceAlpha"/><feGaussianBlur stdDeviation="7.5"/><feColorMatrix values="0 0 0 0 0 0 0 0 0 0 0 0 0 0 0 0 0 0 0.15 0"/></filter></defs><g fill="none" fill-rule="evenodd"><use fill="#000" filter="url(#F)" xlink:href="#D"/><use fill="#022c45" xlink:href="#D"/><mask id="G" fill="#fff"><use xlink:href="#E"/></mask><use fill="url(#A)" xlink:href="#E"/><path fill="#001826" d="M39 151L203.84-17.52l84.34 3.3 3.52 188.54z" mask="url(#G)" opacity=".08"/><path fill="url(#B)" d="M115.7 154.5L270.2-4 332.98.75l20.46 163.75L112 174.32z" mask="url(#G)"/><path stroke="url(#C)" stroke-linecap="square" d="M0 272L377-113M-123 317L254-68" mask="url(#G)"/><path d="M214.4 119.6l-2.8 16.34h-4.63l2.9-16.34h4.54zm9.44-.55a11.5 11.5 0 0 1 4.18.73l-.73 3.54-.45-.18c-.82-.36-1.9-.64-3.45-.64h-.23c-1.65.06-2.4.75-2.4 1.45 0 .82 1 1.27 2.63 2.1 2.72 1.18 3.9 2.63 3.9 4.54 0 1.37-.5 2.56-1.4 3.5l.05.05c-1.36 1.45-3.72 2.27-6.63 2.27-2.1 0-4.08-.45-5.17-.9l.01-.1h-.01l.64-3.72.63.27c1.54.64 2.54.9 4.36.9h.16c1.23-.04 2.56-.6 2.56-1.63a1.2 1.2 0 0 0-.09-.48 2.4 2.4 0 0 0-.36-.43l.27.26c-.28-.45-.93-.88-2.18-1.44-1.8-.82-4.08-2.1-4.08-4.54 0-3.05 2.85-5.23 6.92-5.5h.01l.3-.02h.14l.45-.01zm14.98 16.88l-.54-2.72h-5.8l-.9 2.72h-4.9l6.8-15.16c.45-1.1 1.27-1.18 2.36-1.18h3.54l3.8 16.34h-4.36zm-2.63-11.9l-.05.12-.58 1.5-1.8 4.8h3.8l-1.07-4.9-.27-1.54zm-41.75-4.45c.94 0 1.72.24 2.04 1.2l.05.17 1.46 6.88.17.46.1.3.36 2.27 1.47-3.43 3.16-7.74h4.9l-7.35 16.34h-4.9l-3.97-14.1-.4-.22-.32-.17-.65-.33.48.24-.48-.24-.52-.24.4.2-.4-.2-.5-.22.36.16-.36-.16-.54-.22.36.14-.46-.18-2.9-.9h8.44z" fill="#fff" fill-rule="nonzero"/></g></svg>