<svg xmlns="http://www.w3.org/2000/svg" width="66" height="99" viewBox="0 0 66 99">
  <g fill="none">
    <path fill="#67C5AD" d="M37.8 26.6H27.2V15.7H10.6v10.9H0v15.8h10.6v11.9h16.6V42.4h10.6z"/>
    <path fill="#FFF" d="M61.7 40.2a17.4 17.4 0 0 0-11.2-5.8c9.2-2.9 13.9-8.1 13.9-16.1 0-5.4-2.1-9.7-6.4-13.1A26.2 26.2 0 0 0 41 0H10.6v13H38.8c4 0 8.2 2 8.2 7 0 4.7-3.2 6.2-6.5 6.5v16h.2c6.2 0 8 4.7 8 7.1 0 5-3.1 7.3-8.8 7.3H10.7v13h32c7.3 0 13-1.7 17.1-5 4-3.4 6.2-7.7 6.2-13.4-.1-4.2-1.4-8-4.3-11.3"/>
    <path fill="#67C5AD" d="M10.4 81.2h1.2v2.6h3.2v-2.6H16v6.6h-1.2v-2.9h-3.2v2.9h-1.2zM19.3 81.2h4.5v1h-3.3v1.7h3.1v1h-3.1v1.9H24v1h-4.7zM30.8 85.3l-1-2.7-1 2.7h2zm-1.5-4.1h1l3 6.6h-1.5l-.6-1.5h-2.8l-.6 1.5h-1.4l3-6.6zM35.9 81.2h1.2v5.6h2.8v1h-4zM43.3 82.2h-2.1v-1h5.3v1h-2v5.6h-1.2zM49.2 81.2h1.2v2.6h3.2v-2.6h1.2v6.6h-1.2v-2.9h-3.2v2.9h-1.2zM11.6 97.2h1.1c.6 0 1.5 0 1.5-1 0-.7-.5-.9-1.4-.9h-1v2h-.2zm0-3h1.1c.8 0 1.2-.2 1.2-.8 0-.6-.4-.8-1.3-.8h-.9v1.7zm-1.2-2.6H13c1 0 2 .5 2 1.7 0 .8-.4 1.2-1.2 1.5.9.1 1.5.7 1.5 1.6 0 1.4-1.4 2-2.6 2h-2.4v-6.8h.1zM22 95.7L21 93l-1 2.7h2zm-1.5-4.1h1l3 6.6H23l-.6-1.5h-2.9l-.6 1.5h-1.3l3-6.6zM27 91.6h1.6l3.1 5v-5h1.2v6.6h-1.5l-3.2-5.1v5.1H27zM36.3 91.6h1.2v2.9h.1l2.7-2.9h1.6l-3.1 3 3.3 3.6h-1.6l-2.9-3.3h-.1v3.3h-1.2zM44.8 91.6H46v6.7h-1.2zM49.4 91.6h1.5l3.2 5v-5h1.2v6.6h-1.5l-3.2-5.1h-.1v5.1h-1.1zM64.6 98c-.7.2-1.5.4-2.5.4-2.2 0-3.7-1.4-3.7-3.5s1.6-3.5 3.7-3.5c1 0 2 .3 2.5.8l-.8.9c-.3-.4-1-.7-1.7-.7-1.5 0-2.4 1-2.4 2.4s1 2.5 2.5 2.5c.5 0 .9 0 1.3-.2v-1.7H62v-1h2.5v3.5z"/>
  </g>
</svg>