<svg xmlns="http://www.w3.org/2000/svg" width="120" height="95" fill-rule="nonzero"><path fill="#fff" d="M58.565 83.077c0-.312-.062-.56-.125-.81s-.062-.5-.125-.686h-.81l-.873 2.432c-.062.062-.25.125-.437.187-.25.062-.5.062-.81.062-1.123 0-2.058-.437-2.744-1.3s-.998-2.12-.998-3.805c0-.873.125-1.684.312-2.308s.437-1.185.748-1.56c.312-.437.686-.686 1.123-.873s.873-.312 1.372-.312c.25 0 .5 0 .748.062s.374.062.5.125l.998 2.62h.81a2.68 2.68 0 0 0 .125-.748c.062-.312.125-.624.125-.936.062-.312.062-.624.062-.936v-.686c-.374-.187-.936-.312-1.56-.437s-1.372-.187-2.12-.187a7.54 7.54 0 0 0-2.37.374c-.748.25-1.435.624-1.996 1.123a5.45 5.45 0 0 0-1.372 1.933c-.312.81-.5 1.746-.5 2.87a9.57 9.57 0 0 0 .437 2.869 5.56 5.56 0 0 0 1.31 1.996c.56.5 1.247.873 2.058 1.123s1.684.374 2.682.374c.624 0 1.3-.062 1.933-.125.624-.125 1.185-.312 1.56-.56v-.81c0-.437-.062-.748-.062-1.06M65 81.08v1.684c-.062.125-.062.25-.125.374a1.94 1.94 0 0 1-.249.374c-.125.125-.25.25-.437.312s-.374.125-.624.125c-.374 0-.686-.125-.873-.374s-.312-.56-.312-.998c0-.312.062-.5.125-.748a.97.97 0 0 1 .374-.499 1.56 1.56 0 0 1 .811-.249c.312.062.748 0 1.3 0m2.557 2.308v-.686l.062-1.746.062-1.87c0-.374-.062-.748-.125-1.06-.125-.312-.25-.624-.5-.873s-.56-.437-.998-.624c-.437-.125-.998-.187-1.684-.187-.81 0-1.56.062-2.245.25s-1.3.437-1.746.686c0 .187.062.374.125.624l.187.624c.062.187.187.374.25.56s.187.312.25.5h.81l.81-2.058c.312-.125.624-.187.998-.187.56 0 .936.25 1.123.686s.187 1.185.125 2.12l-2.432.25c-.686.125-1.247.25-1.684.5-.437.187-.748.5-.998.81-.187.312-.312.748-.312 1.3 0 .374.062.686.187.998s.374.56.624.748.56.374.873.5.686.187 1.123.187c.374 0 .686-.062.998-.187a3.36 3.36 0 0 0 .811-.437c.25-.187.437-.374.56-.56s.25-.437.312-.624c0 .374 0 .686.062.936 0 .25.125.56.187.81h.624c.187 0 .437-.062.686-.125l.81-.187.748-.187a2.9 2.9 0 0 0 .561-.187v-.624l-1.247-.187v-.5m16.6.748v-4.054c0-.748-.062-1.3-.187-1.81s-.312-.873-.56-1.123c-.25-.312-.5-.5-.873-.624-.312-.125-.748-.187-1.185-.187-.748 0-1.3.187-1.87.624a4.1 4.1 0 0 0-1.06 1.435c-.062-.374-.187-.686-.312-.936-.187-.312-.374-.5-.624-.686s-.5-.25-.748-.312-.56-.062-.873-.062c-.686 0-1.247.187-1.746.56-.437.374-.748.748-.936 1.247v-1.81h-.624l-.686.062c-.25.062-.56.062-.873.125l-.873.187c-.25.062-.5.125-.686.25v.686l1.185.125v6.3l-.624.187c-.187.062-.374.125-.56.25v.748h4.74v-.686c-.25-.187-.56-.312-.873-.437v-4.802c.125-.437.312-.81.624-1.123.25-.25.624-.437.936-.437.25 0 .437.062.624.187s.312.25.374.5l.187.873.062 1.372v3.43l-.5.187c-.125.062-.312.125-.374.187v.686h4.553v-.748c-.125-.062-.312-.187-.437-.25s-.312-.125-.5-.187v-4.678c.125-.5.312-.936.56-1.247s.56-.437.998-.437c.56 0 .936.187 1.06.624.187.437.25 1.06.25 1.996v3.742c-.312.125-.624.25-.873.437v.686h4.74v-.748l-1.435-.312m6.175.187l-.624-.187V76.34h-.624c-.187 0-.5.062-.748.125-.312.062-.56.062-.873.125l-.873.187-.686.187v.686l1.185.125v6.3l-.624.187c-.187.062-.374.125-.56.25v.748h5v-.686c-.187-.125-.374-.187-.56-.25m-3.056-9.605c.312.25.686.374 1.123.374s.81-.125 1.123-.374a1.12 1.12 0 0 0 .437-.936c0-.437-.125-.748-.437-.998s-.686-.374-1.123-.374-.81.125-1.123.374-.437.56-.437.998a1.12 1.12 0 0 0 .437.936m14.033 9.418V80.02c0-.686-.062-1.3-.187-1.81s-.312-.873-.624-1.123c-.25-.312-.56-.5-.936-.56-.374-.125-.81-.187-1.247-.187a3.16 3.16 0 0 0-1.871.561c-.437.312-.81.748-1.06 1.185v-1.684h-.624c-.25 0-.56.062-.81.125-.312.062-.624.062-.873.125l-.81.187-.624.187v.686l1.185.125v6.3c-.5.125-.873.25-1.185.437v.748h4.802v-.686c-.187-.125-.312-.187-.5-.25-.125-.062-.312-.125-.5-.187v-4.802c.187-.5.437-.873.748-1.123s.686-.437 1.123-.437c.5 0 .873.187 1.123.624.187.374.312.998.312 1.684V84.2l-.5.187c-.125.062-.312.125-.437.25v.748h4.802v-.686c-.5-.374-.873-.5-1.3-.56m7.547-.56c-.125.25-.312.437-.56.56-.187.125-.437.187-.686.187-.437 0-.81-.062-1.06-.25s-.5-.374-.686-.686-.25-.686-.312-1.06c-.062-.437-.125-.936-.125-1.435 0-.624.062-1.185.125-1.622s.187-.81.312-1.06.312-.437.56-.56c.187-.125.5-.187.81-.187.437 0 .748.062.998.25s.5.374.624.686c.187.312.25.686.312 1.06.062.437.125.936.125 1.435 0 .624-.062 1.185-.125 1.622s-.187.81-.312 1.06m2.12-5.988c-.374-.374-.873-.748-1.497-.936-.624-.25-1.3-.312-2.183-.312-.748 0-1.435.125-1.996.312s-1.06.5-1.497.936a3.2 3.2 0 0 0-.936 1.435c-.25.56-.312 1.185-.312 1.933 0 .686.125 1.247.312 1.81s.5 1.06.873 1.435.873.748 1.497.936c.624.25 1.3.312 2.12.312.748 0 1.435-.125 1.996-.312s1.123-.5 1.497-.936a3.2 3.2 0 0 0 .936-1.435 5.98 5.98 0 0 0 .312-1.933c0-.686-.062-1.247-.25-1.81-.187-.5-.437-.998-.873-1.435m8.482 4.116c-.25-.312-.5-.624-.81-.873s-.686-.437-1.06-.624l-1.06-.56c-.312-.187-.624-.374-.81-.56s-.312-.437-.312-.748c0-.25.062-.437.25-.686.187-.187.437-.312.81-.312h.5c.125 0 .312.062.437.125l.748 1.746h.686l.437-1.123.312-1.185c-.437-.187-.936-.312-1.435-.437-.56-.125-1.185-.125-1.81-.125a4.75 4.75 0 0 0-1.31.187c-.374.125-.748.25-1.06.437s-.5.437-.686.748a1.76 1.76 0 0 0-.249.936c0 .5.125.936.312 1.247.25.312.5.624.81.873s.686.5 1.06.624l1.06.56c.312.187.624.374.81.624.187.187.312.437.312.748s-.125.624-.437.81a1.53 1.53 0 0 1-.936.312h-.437c-.125 0-.312-.062-.437-.125l-.873-1.87h-.624c-.187.312-.374.748-.56 1.123-.187.437-.312.873-.312 1.247a9.17 9.17 0 0 0 1.559.499c.624.125 1.185.187 1.746.187 1.123 0 1.996-.25 2.682-.686s.998-1.123.998-1.933c0-.5-.125-.873-.312-1.185M2.994 79.646h1.372c.437 0 .873.062 1.3.125s.81.187 1.123.374a2.15 2.15 0 0 1 .748.748c.187.312.312.686.312 1.185 0 .374-.062.748-.25 1.06s-.374.624-.624.81c-.25.25-.624.437-.998.56s-.81.187-1.247.187c-.5 0-.873 0-1.123-.062-.25 0-.437-.062-.624-.125v-4.865zm0-5.55c.187 0 .437-.062.686-.062h.936c.81 0 1.435.187 1.933.56s.748.998.748 1.746c0 .56-.187 1.06-.56 1.497s-.81.748-1.372.936c-.187 0-.437.062-.686.062H2.994v-4.74zm.187 11.35c.5.062.998.062 1.435.062.56 0 1.185-.062 1.746-.187s1.123-.374 1.56-.624c.437-.312.81-.686 1.123-1.123s.437-.998.437-1.622c0-.5-.062-.873-.25-1.247-.187-.312-.374-.624-.686-.873-.25-.25-1.06-.748-1.996-.873h-.062v-.062h.062c.374-.062 1.247-.374 1.746-1.123.187-.25.312-.56.437-.81.125-.312.125-.624.125-.873 0-.624-.125-1.06-.374-1.435s-.56-.686-.936-.873-.81-.374-1.3-.437l-1.435-.125H3.93c-.25 0-.5 0-.748.062-.25 0-.437 0-.624.062H0v.437c.25.062.437.187.686.25l.748.187h.062v10.416h-.062c-.5.062-.998.187-1.435.374v.437h1.684a6.01 6.01 0 0 1 1.497 0zm9.418-3.243c.125-.25.25-.437.56-.56.25-.125.624-.25 1.06-.312s.998-.125 1.684-.125h.062v1.87c-.062.125-.125.25-.187.437s-.25.312-.374.5c-.187.187-.374.312-.56.437-.25.125-.5.187-.81.187-.437 0-.81-.125-1.123-.437-.25-.25-.374-.686-.374-1.185-.062-.312 0-.56.062-.81m-1.06 2.744c.437.437 1.06.624 1.746.624.56 0 1.185-.062 1.87-.56.748-.624.873-1.372.873-1.372h.062v.062c0 1.06.125 1.622.25 1.87h.437c.312-.062.686-.125 1.06-.25a7.26 7.26 0 0 0 .936-.374v-.312l-1.247-.187v-.062c0-.187 0-.437-.062-.56v-.686l.062-1.87.062-1.996c0-.312 0-.624-.062-.998-.062-.312-.187-.624-.374-.873s-.437-.5-.81-.624c-.374-.187-.873-.25-1.435-.25-.686 0-1.3.062-1.87.25-.56.125-1.06.374-1.497.624 0 .374.062.686.187 1.06.062.374.187.686.312 1.06h.437l.81-2.058c.187-.062.437-.125.624-.125h.56c.374 0 .686.062.873.25.25.187.374.374.5.686s.187.624.187 1.06l-.062 1.372v.062h-.062l-2.183.187c-.624.062-1.185.25-1.56.437-.437.187-.748.437-.936.81-.187.312-.312.748-.312 1.3-.062.5.187 1.06.624 1.435m14.782-6.61c.25.5.374 1.247.374 2.12v4.18l-.998.374v.374h3.742V85c-.312-.187-.686-.312-1.123-.374h-.062v-4.428c0-.686-.062-1.3-.187-1.746s-.312-.81-.56-1.123c-.25-.25-.56-.437-.936-.56s-.81-.187-1.247-.187c-.686 0-1.247.187-1.684.56s-.81.81-1.06 1.372h-.062V76.6h-.437c-.437.062-.873.187-1.247.25l-1.06.312v.374l1.185.125v6.923c-.5.125-.873.25-1.123.374v.374h3.805v-.374a3.07 3.07 0 0 0-1.06-.374h-.062V79.46c.062-.25.187-.5.374-.686.125-.25.312-.437.5-.624s.437-.312.686-.437.56-.187.873-.187c.56 0 1.06.312 1.372.81m7.734-1.81c-1.247 0-2.245.374-2.994 1.185-.748.748-1.123 1.87-1.123 3.368 0 .686.062 1.3.25 1.87s.437 1.06.748 1.435.748.686 1.3.936c.5.187 1.123.312 1.81.312 1.435 0 2.495-.998 2.682-1.372l-.187-.187c-.187.125-.5.312-.748.374-.312.125-.686.187-1.123.187-.5 0-.998-.125-1.372-.312s-.748-.5-.998-.81-.437-.686-.56-1.123a4.75 4.75 0 0 1-.187-1.31c0-1.372.25-2.37.686-2.93s1.123-.873 1.933-.873c.25 0 .437 0 .56.062.125 0 .187.062.312.125l.748 2.058h.437c.125-.312.25-.686.374-1.123.062-.437.187-.873.187-1.247-.312-.125-.686-.25-1.123-.374-.56-.187-1.06-.25-1.622-.25m9.73 7.422c-.437.624-.936.936-1.622.936a2.9 2.9 0 0 1-1.31-.312c-.374-.187-.686-.5-.873-.81-.25-.374-.374-.748-.5-1.247-.125-.437-.125-.936-.125-1.497 0-1.3.25-2.245.624-2.87.437-.624.998-.936 1.746-.936.5 0 .873.125 1.247.312a2.52 2.52 0 0 1 .811.811c.187.374.374.748.5 1.185s.125.936.125 1.497c0 1.372-.25 2.308-.624 2.93m1.247-6.175c-.312-.374-.748-.686-1.3-.936-.5-.187-1.185-.312-1.87-.312a4.76 4.76 0 0 0-1.684.312c-.5.187-.936.5-1.3.873s-.624.873-.81 1.435a5.98 5.98 0 0 0-.312 1.933c0 .686.062 1.3.25 1.87s.437 1.06.748 1.435.748.686 1.3.936c.5.187 1.123.312 1.87.312 1.247 0 2.308-.374 3.056-1.185.748-.748 1.123-1.933 1.123-3.368 0-.686-.062-1.3-.25-1.87-.25-.56-.5-.998-.81-1.435"/><path fill="#d9ab6e" d="M31.247 0c-.873 0-1.622.686-1.622 1.56v55.634c0 .873.748 1.56 1.622 1.56h57.256c.873 0 1.622-.686 1.622-1.56V1.56c0-.873-.748-1.56-1.622-1.56H31.247z"/><path fill="#fff" d="M47.838 30.062l-1.06-.187v-8.42h2.37c.748 0 1.497.062 2.245.187s1.372.312 1.933.686c.56.312.998.748 1.3 1.3s.5 1.247.5 2.058c0 .624-.125 1.247-.437 1.81-.25.56-.624 1.06-1.123 1.435s-1.06.686-1.684.936c-.686.25-1.372.312-2.12.312l-1.933-.125zm-1.06-18.4c.312-.062.686-.062 1.123-.062h1.684c1.372 0 2.495.312 3.306.998s1.247 1.684 1.247 2.994c0 .998-.312 1.81-.936 2.557s-1.435 1.247-2.37 1.56c-.312.062-.748.062-1.185.125-.5.062-.936.062-1.247.062h-1.56v-8.233h-.062zm27.193-2.12L58.13 24.948c-.062-.624-.187-1.185-.437-1.684-.312-.624-.686-1.123-1.185-1.56s-1.06-.748-1.622-.998c-.624-.25-1.247-.437-1.87-.5v-.125c.686-.187 1.3-.437 1.87-.748.5-.374.936-.748 1.3-1.185a3.4 3.4 0 0 0 .748-1.497c.187-.5.25-1.06.25-1.56 0-1.06-.25-1.933-.686-2.557a4.23 4.23 0 0 0-1.746-1.559c-.686-.374-1.497-.624-2.37-.748a18.3 18.3 0 0 0-2.557-.187h-1.56l-1.3.062c-.374 0-.81.062-1.123.062-.374 0-.748.062-1.123.062h-3.306v.873c.437.187.873.312 1.3.437l1.3.312V30c-.873.125-1.746.374-2.557.748v.873h2.994l2.682.062 2.495.062c.56 0 1.123-.062 1.684-.125L39.543 43.035v2.37l36.86-35.863H73.97zm6.3 3.742L43.347 49.148h2.432L60.873 34.49c-.125.873-.187 1.746-.187 2.807 0 1.933.25 3.555.748 5 .5 1.372 1.247 2.557 2.183 3.43s2.12 1.56 3.493 1.996 2.93.686 4.74.686l1.435-.062 1.497-.187 1.372-.374c.437-.125.81-.374 1.123-.624.062-.81 0-1.684-.062-2.495-.062-.873-.187-1.56-.312-2.183h-.748l-1.497 3.805c-.125.187-.437.312-.936.374-.437.125-1.06.125-1.746.125-1.3 0-2.432-.187-3.493-.686a7.77 7.77 0 0 1-2.62-1.871c-.686-.81-1.247-1.81-1.622-2.994s-.56-2.495-.56-3.93c0-1.622.187-2.994.624-4.18s.998-2.183 1.684-2.994 1.497-1.372 2.432-1.746 1.933-.56 2.994-.56l1.56.062c.56.062.936.125 1.123.25l1.622 4.428h.81l.187-1.3.187-1.435c.062-.5.062-.936.062-1.372s.062-.81.062-1.123c-.686-.374-1.56-.624-2.495-.748-.936-.187-2.12-.25-3.493-.25-.624 0-1.3.062-1.933.125l11.04-10.665v-2.495h.125z"/><path d="M31.372 92.682v1.123h.624c.25 0 .437-.062.56-.125.125-.125.187-.25.187-.437 0-.374-.25-.5-.748-.5h-.624v-.062zm0-.686h.56c.25 0 .437-.062.56-.125s.187-.187.187-.374-.062-.25-.187-.374a1.25 1.25 0 0 0-.56-.125h-.5v.998h-.062zm-.936-1.684h1.372c.624 0 1.06.062 1.372.25.25.187.437.437.437.8a1.05 1.05 0 0 1-.187.624c-.125.187-.312.25-.5.312.25.062.5.187.624.312a1.05 1.05 0 0 1 .187.624c0 .374-.125.686-.437.873a2.22 2.22 0 0 1-1.185.312H30.5v-4.116h-.062zm6.923 2.495l-.5-1.56c-.062-.125-.062-.187-.062-.312a31.39 31.39 0 0 1-.561 1.809h1.123v.062zm.56 1.746l-.312-.998h-1.56l-.312.998h-.998l1.56-4.24h1.123l1.56 4.24h-1.06zm6.175 0H42.9l-1.87-3.18c.062.56.062.936.062 1.185v1.996h-.8v-4.24h1.185l1.87 3.18c0-.56-.062-.936-.062-1.185v-1.996h.8v4.24zm3.617-3.555c-.374 0-.624.125-.8.374s-.312.624-.312 1.06c0 .936.374 1.435 1.06 1.435a2.82 2.82 0 0 0 1.123-.25v.748a3.63 3.63 0 0 1-1.185.187c-.624 0-1.123-.187-1.435-.56s-.5-.936-.5-1.622c0-.437.062-.8.25-1.185.187-.312.374-.56.686-.748s.686-.25 1.06-.25a2.84 2.84 0 0 1 1.247.312l-.312.748-.5-.187c-.062-.062-.25-.062-.374-.062m3.368 1.435c0 .5.062.8.25 1.06s.437.374.8.374c.748 0 1.123-.5 1.123-1.435s-.374-1.435-1.123-1.435c-.374 0-.624.125-.8.374-.125.187-.25.56-.25 1.06m3.18 0c0 .686-.187 1.247-.56 1.622s-.873.56-1.56.56-1.185-.187-1.56-.56-.56-.936-.56-1.622.187-1.247.56-1.622.873-.56 1.56-.56 1.185.187 1.56.56.56.936.56 1.622m4.865-.125h.312c.312 0 .5-.062.624-.187s.187-.25.187-.5c0-.187-.062-.374-.187-.437-.125-.125-.312-.125-.56-.125h-.437v1.247h.062zm2.058-.686c0 .437-.125.8-.437 1.06s-.686.374-1.247.374h-.374v1.497h-.936v-4.24h1.372c.5 0 .936.125 1.185.312.312.25.437.56.437.998zm2.37.56h.312c.312 0 .5-.062.624-.125.125-.125.187-.25.187-.437s-.062-.374-.187-.437-.374-.125-.686-.125h-.25v1.123zm0 .748v1.622h-.936V90.3h1.247c.56 0 .998.125 1.3.312s.437.5.437.936c0 .25-.062.5-.187.686s-.312.374-.624.437l1.247 1.8h-.998l-1.06-1.622h-.437v.062zm3.934-2.616h1v4.24h-1zm5.24 0h.936l-1.497 4.24h-.998l-1.497-4.24h.936l.8 2.495c.062.125.062.312.125.5s.062.312.062.437c0-.187.125-.5.25-.936l.873-2.495zm4.116 2.495l-.5-1.56c-.062-.125-.062-.187-.062-.312a31.39 31.39 0 0 1-.561 1.809h1.123v.062zm.5 1.746l-.312-.998h-1.56l-.312.998h-.998l1.56-4.24h1.123l1.56 4.24h-1.06zm5-2.12c0-.936-.437-1.372-1.247-1.372h-.5v2.744h.374c.936 0 1.372-.5 1.372-1.372m.936-.062c0 .686-.187 1.247-.624 1.622s-.998.56-1.746.56h-1.247v-4.24h1.372c.686 0 1.247.187 1.684.56.374.374.56.873.56 1.497m2.37.062c0 .5.062.8.25 1.06s.437.374.8.374c.748 0 1.123-.5 1.123-1.435s-.374-1.435-1.123-1.435c-.374 0-.624.125-.8.374-.125.187-.25.56-.25 1.06m3.18 0c0 .686-.187 1.247-.56 1.622s-.873.56-1.56.56-1.185-.187-1.56-.56-.56-.936-.56-1.622.187-1.247.56-1.622.873-.56 1.56-.56 1.185.187 1.56.56.56.936.56 1.622" fill="#d9ab6e"/></svg>