<svg xmlns="http://www.w3.org/2000/svg" xmlns:xlink="http://www.w3.org/1999/xlink" width="260" height="151">
	<defs>
		<linearGradient id="A" x1=".644%" x2="100%" y1="44.56%" y2="44.56%">
			<stop offset="0%" stop-opacity=".458" />
			<stop offset="100%" stop-opacity="0" />
		</linearGradient>
		<linearGradient id="B" x1="10.991%" x2="50%" y1="42.246%" y2="58.241%">
			<stop offset="0%" stop-color="#78cdbd" stop-opacity="0" />
			<stop offset="100%" stop-color="#44a58d" />
		</linearGradient>
		<linearGradient id="C" x1="56.366%" x2="43.963%" y1="59.545%" y2="48.377%">
			<stop offset="0%" stop-color="#53b09e" stop-opacity="0" />
			<stop offset="100%" stop-color="#318e77" stop-opacity=".613" />
		</linearGradient>
		<rect id="D" width="210" height="79" x="25" y="72" rx="20" />
		<rect id="E" width="260" height="151" rx="20" />
		<rect id="F" width="260" height="151" rx="20" />
		<radialGradient id="G" cx="50%" cy="0%" r="100%" fx="50%" fy="0%"
			gradientTransform="matrix(0 1 -.58077 0 .5 -.5)">
			<stop offset="0%" stop-color="#92eed5" />
			<stop offset="100%" stop-color="#50c8aa" />
		</radialGradient>
		<filter id="H" width="121.4%" height="157%" x="-10.7%" y="-28.5%">
			<feOffset in="SourceAlpha" />
			<feGaussianBlur stdDeviation="7.5" />
			<feColorMatrix values="0 0 0 0 0 0 0 0 0 0 0 0 0 0 0 0 0 0 0.15 0" />
		</filter>
	</defs>
	<g fill-rule="evenodd">
		<use fill="#000" filter="url(#H)" xlink:href="#D" />
		<use fill="#e6e4e4" xlink:href="#D" />
		<use fill="url(#G)" xlink:href="#E" />
		<mask id="I" fill="#fff">
			<use xlink:href="#F" />
		</mask>
		<use fill="url(#A)" opacity=".507" xlink:href="#F" />
		<g stroke="#70d7bd" stroke-width=".5">
			<path fill="url(#B)" stroke-opacity=".175"
				d="M-6.67 42.904c43.133 40 83.336 60 120.6 60 55.912 0 98.88-56.313 179.557-43.156 53.786 8.77 45.186 49.72-25.798 122.847L-15.814 171.81-6.67 42.904z"
				mask="url(#I)" />
			<path fill="url(#C)" stroke-opacity=".385"
				d="M-6.67 95.904c44.66 15.835 81.464 18.792 110.413 8.87C147.165 89.892 203.137 13.327 270.39 33.4c44.834 13.375 60.38 63.1 46.64 149.205l-323.7-12.017V95.904z"
				mask="url(#I)" />
		</g>
		<g fill="#fff" fill-rule="nonzero" mask="url(#I)">
			<path
				d="M214.4 119.613l-2.812 16.337h-4.63l2.905-16.337h4.54zm9.44-.545c1.816 0 3.268.363 4.176.726l-.726 3.54-.454-.18c-.817-.363-1.906-.636-3.45-.636l-.23.004c-1.654.06-2.4.754-2.4 1.45 0 .817.998 1.27 2.632 2.087 2.723 1.18 3.903 2.633 3.903 4.54a4.87 4.87 0 0 1-1.412 3.489l.05.05c-1.36 1.453-3.72 2.27-6.626 2.27-2.087 0-4.084-.454-5.174-.908l.015-.085-.015-.005.636-3.722.635.272c1.543.636 2.542.908 4.357.908l.16-.003c1.23-.043 2.563-.587 2.563-1.63 0-.168-.03-.326-.095-.48-.082-.135-.204-.274-.36-.43l.27.264c-.283-.45-.93-.883-2.176-1.444-1.815-.816-4.084-2.087-4.084-4.538 0-3.05 2.847-5.23 6.918-5.507h.01l.29-.017.14-.005.45-.008zm14.978 16.883l-.545-2.723h-5.8l-.907 2.723h-4.9l6.807-15.158c.454-1.1 1.27-1.18 2.36-1.18h3.54l2.266 9.71.004.003 1.543 6.626h-4.357zm-2.633-11.9l-.052.122-.567 1.467-.016.044-1.815 4.81h3.794l-1.07-4.902-.273-1.543zm-41.753-4.448c.943 0 1.724.243 2.037 1.187l.05.174 1.46 6.88.173.46.092.286.363 2.27 1.452-3.45.02.02 3.157-7.736h4.902l-6.636 14.747-.626 1.502h-.05l-.04.1h-4.903l-3.965-14.102-.395-.223-.32-.173-.168-.087.168.087-.652-.327.484.24-.595-.294.11.054-.52-.243.4.2-.554-.254.144.064-.508-.22.364.156-.54-.23.176.073-.54-.217.364.144-.46-.182-2.896-.886h8.442z" />
		</g>
	</g>
</svg>